<svg xmlns="http://www.w3.org/2000/svg" width="300.12" height="266.208" viewBox="0 0 300.12 266.208">
  <g id="Grupo_194" data-name="Grupo 194" transform="translate(-608.5 -5784.456)">
    <g id="Sem_TiÌtulo-1.psd" transform="translate(608.509 5785.055)">
      <g id="Shape_2" transform="translate(-0.009 -0.599)">
        <g id="Grupo_32" data-name="Grupo 32">
          <path id="Caminho_57" data-name="Caminho 57" d="M257.512,11.088C237.776-.728,213.415-2.312,190.6.77c-11.688,1.584-22.22,6.079-32.366,12.116-11.517,6.807-22.134,15.37-33.479,22.434C88.617,57.84,48.716,57.625,21.273,85.025,1.622,104.634-3.088,135.287,1.75,162.645c3.982,22.477,20.507,44.825,34.764,54.543,39.131,26.715,71.069,22.048,96.457,26.629,19.608,3.553,27.486,7.535,41.143,21.792-1.969-16.1-1.627-22.605,5.48-36.134,9.676-18.5,75.778-51.932,89.521-67.558,18.666-21.192,31.039-44.782,31-73.081C300.111,60.537,281.744,25.559,257.512,11.088Z" transform="translate(0.009 0.599)" fill="#e23f39" fill-rule="evenodd"/>
        </g>
      </g>
      <g id="Grupo" transform="translate(33.899 8.801)">
        <path id="Caminho_165" data-name="Caminho 165" d="M2.3,1.716Q2.184-.429,2.184-2.847q0-4.134.468-10.335l.819-10.452q.039-.858,1.521-.858a2.367,2.367,0,0,1,.858.234,5.071,5.071,0,0,1,1.17.741q.624,1.209,1.4,3.12T10.1-15.8q.9,2.574,1.736,4.914t1.579,4.1l1.56-16.926q.078-.78,1.131-.78a3.438,3.438,0,0,1,.819.117l.741.195a.817.817,0,0,1,.507.546L17.121-13.143q-.312,3.159-.487,5.733t-.176,4.68v1.345A13.61,13.61,0,0,0,16.536.039a1.369,1.369,0,0,1-.488,1.034,1.552,1.552,0,0,1-1.073.448q-1.209,0-2.028-1.638Q12.324-1.326,11.583-3.1T10-7.02q-.839-2.145-1.735-4.6t-1.833-5.07q-.078-.234-.2-.234-.273,0-.351.546-.156,1.4-.234,3.023t-.1,3.335q-.02,1.716-.02,3.432v3.237q0,1.482.039,2.984t.117,3.062v.156a1.438,1.438,0,0,1-.663,1.4.82.82,0,0,1-.585.273,1.4,1.4,0,0,1-.7-.234L3,3.939Q2.5,3.783,2.379,3ZM33.93-.7q.117.312.234.644a1.928,1.928,0,0,1,.117.644.729.729,0,0,1-.176.507,1.3,1.3,0,0,1-.429.312,2.505,2.505,0,0,1-.526.175,2.43,2.43,0,0,1-.507.059A1.482,1.482,0,0,1,31.356.761a8.164,8.164,0,0,1-.819-2.184q-.312-1.306-.527-2.769T29.6-6.825a6.932,6.932,0,0,1-.761,2.067,12.748,12.748,0,0,1-1.618,2.4A11.319,11.319,0,0,1,25.077-.39a4.061,4.061,0,0,1-2.34.819A2.907,2.907,0,0,1,21.2.058a2.577,2.577,0,0,1-.917-.917,3.722,3.722,0,0,1-.429-1.229,7.533,7.533,0,0,1-.117-1.267,10.234,10.234,0,0,1,.644-3.179,17.993,17.993,0,0,1,1.755-3.686,13.237,13.237,0,0,1,2.574-3.061,4.671,4.671,0,0,1,3.1-1.267,3.209,3.209,0,0,1,.8.117,9.3,9.3,0,0,1,.917.292,5.68,5.68,0,0,1,.9.429,8.168,8.168,0,0,1,.741.487,2.706,2.706,0,0,1,.9,1.482,15.232,15.232,0,0,1,.351,1.95q.273,1.95.429,3.53a24.025,24.025,0,0,0,.585,3.334l.234,1.443Zm-11-2.028a.079.079,0,0,0,.02.058.079.079,0,0,1,.02.059,2.072,2.072,0,0,0,1.17-.683,12.484,12.484,0,0,0,1.326-1.541A18.874,18.874,0,0,0,26.7-6.728,11.093,11.093,0,0,0,27.534-8.5q.156-.351.37-.78t.429-.877A8.358,8.358,0,0,0,28.684-11a2.072,2.072,0,0,0,.136-.663q-.195-.078-.351-.156a.774.774,0,0,0-.351-.078,2.092,2.092,0,0,0-1.521.663,7.541,7.541,0,0,0-1.15,1.482,12.038,12.038,0,0,0-.8,1.579,9.39,9.39,0,0,1-.429.956A11.844,11.844,0,0,0,23.3-5.109a7,7,0,0,0-.371,2.184Zm.624-22.737a4.919,4.919,0,0,1,.917.078,5.386,5.386,0,0,1,.878.253,9.5,9.5,0,0,1,1.092.507q.624.331,1.521.838.78.468,1.618.936a2.986,2.986,0,0,0,1.267.468,1.2,1.2,0,0,0,1.092-.741,9,9,0,0,0,.7-2.262q.078-.312.156-.566a.333.333,0,0,1,.351-.253,1.911,1.911,0,0,1,1.579.566,2.1,2.1,0,0,1,.449,1.346A7.846,7.846,0,0,1,35-22.737a5.608,5.608,0,0,1-.585,1.6,3.97,3.97,0,0,1-1.072,1.248,2.617,2.617,0,0,1-1.638.507,5.019,5.019,0,0,1-2.165-.468,19.223,19.223,0,0,1-1.911-1.034q-.917-.565-1.736-1.033a3.276,3.276,0,0,0-1.638-.468,1.575,1.575,0,0,0-.838.253,4.2,4.2,0,0,0-.76.6,4.98,4.98,0,0,0-.624.76,6.9,6.9,0,0,0-.429.722.159.159,0,0,1-.039.117,3.83,3.83,0,0,1-.468.663.89.89,0,0,1-.7.312q-1.092,0-1.092-1.209a12.95,12.95,0,0,1,.39-1.658,7.778,7.778,0,0,1,.741-1.716,4.982,4.982,0,0,1,1.131-1.345,2.562,2.562,0,0,1,1.56-.585Zm17,25.7a2.017,2.017,0,0,1-1.189-.37q-.527-.371-1.111-.722a5.308,5.308,0,0,1-1.989-1.95,5.816,5.816,0,0,1-.7-2.964,8.774,8.774,0,0,1,.292-2.048q.292-1.189.527-2.2a5.755,5.755,0,0,1,.546-1.19,8.529,8.529,0,0,1,1.073-1.482,7.6,7.6,0,0,1,1.462-1.268,2.99,2.99,0,0,1,1.677-.546,1.258,1.258,0,0,1,.7.234,6.668,6.668,0,0,0,1.131.585q.585.234,1.189.468t1.19.507a4.881,4.881,0,0,1,1.092.7,2.386,2.386,0,0,1,.663.858q.234.507.468.975a2.255,2.255,0,0,1,.234.8q.039.41.039.839V-7.8a6.072,6.072,0,0,1-.487,2.242,14.236,14.236,0,0,1-1.073,2.009q-.312.507-.819,1.17a10.215,10.215,0,0,1-1.131,1.248,7.718,7.718,0,0,1-1.306.995,2.664,2.664,0,0,1-1.384.41q-.2,0-.41-.019t-.449-.02Zm3.822-9.321a1.78,1.78,0,0,0-.819-1.638,3.343,3.343,0,0,0-1.794-.507,1.722,1.722,0,0,0-1.326.6,5.557,5.557,0,0,0-.936,1.482,8.023,8.023,0,0,0-.566,1.872,10.161,10.161,0,0,0-.175,1.736q0,.156.059.624a5.744,5.744,0,0,0,.215.975,2.9,2.9,0,0,0,.448.9.908.908,0,0,0,.761.39,2.136,2.136,0,0,0,.78-.136q.351-.136.78-.332A3.811,3.811,0,0,0,42.9-4.173a6.367,6.367,0,0,0,.76-1.443,10.85,10.85,0,0,0,.468-1.638,16.268,16.268,0,0,0,.253-1.638ZM59.67-6.474a11.8,11.8,0,0,1,.37-2.905,9.024,9.024,0,0,1,1.111-2.633A6.218,6.218,0,0,1,62.985-13.9a4.492,4.492,0,0,1,2.535-.721,4.652,4.652,0,0,1,1.774.312,3.811,3.811,0,0,1,1.268.819,3.352,3.352,0,0,1,.76,1.151A3.638,3.638,0,0,1,69.576-11a4.68,4.68,0,0,1-.332,1.735,4.687,4.687,0,0,1-.955,1.5,4.74,4.74,0,0,1-1.54,1.073,5.524,5.524,0,0,1-2.087.449,3.307,3.307,0,0,1-.9-.039q-.39-.078-.9-.234a1.735,1.735,0,0,0-.039.332v.214A5.244,5.244,0,0,0,63.3-3.705a3.853,3.853,0,0,0,.936,1.229,2.585,2.585,0,0,0,.975.526,3.279,3.279,0,0,0,.624.117,3.482,3.482,0,0,0,2.008-.546l1.775-1.209q.195.078.429.176a1.029,1.029,0,0,1,.429.371,3.514,3.514,0,0,0,.078.37,1.6,1.6,0,0,1,.039.41,1.823,1.823,0,0,1-.293.916,3.4,3.4,0,0,1-.565.644A5.332,5.332,0,0,1,67.84.41a8.437,8.437,0,0,1-2.281.254A5.583,5.583,0,0,1,64.019.39,9.635,9.635,0,0,1,62.478-.2a7.244,7.244,0,0,1-1.462-1.4A5.94,5.94,0,0,1,60.2-3.081a6.843,6.843,0,0,1-.39-1.618Q59.709-5.538,59.67-6.474ZM63.063-8.58a2.907,2.907,0,0,0,.487.059q.331.019.527.019a2.917,2.917,0,0,0,2.048-.663,2.094,2.094,0,0,0,.721-1.6,1.792,1.792,0,0,0-.312-1.014.979.979,0,0,0-.858-.468,3.682,3.682,0,0,0-.76.078.844.844,0,0,0-.565.39,4.75,4.75,0,0,1-.351.39,2.1,2.1,0,0,0-.37.546,5.453,5.453,0,0,0-.332.878A7.383,7.383,0,0,0,63.063-8.58Zm14.391.936q.78,1.482,1.443,2.984a8.266,8.266,0,0,1,.663,3.374A5.042,5.042,0,0,1,79.229.546a5,5,0,0,1-.916,1.521,4.337,4.337,0,0,1-1.4,1.053,4.03,4.03,0,0,1-1.755.39,2.146,2.146,0,0,1-1.5-.644A2.275,2.275,0,0,1,72.891,1.4a1.774,1.774,0,0,1,.293-.448,1.414,1.414,0,0,1,.6-.254,1.348,1.348,0,0,0,.936.468,1.514,1.514,0,0,0,1.17-.585A2.182,2.182,0,0,0,76.4-.9a1.141,1.141,0,0,0-.039-.39A17.186,17.186,0,0,0,75.27-4.466q-.663-1.423-1.307-2.672T72.852-9.5a5.734,5.734,0,0,1-.468-2.243,12.454,12.454,0,0,1,.156-1.93,7.121,7.121,0,0,1,.546-1.853,3.951,3.951,0,0,1,1.034-1.4,2.473,2.473,0,0,1,1.658-.546,1.1,1.1,0,0,1,.215.019,1.1,1.1,0,0,0,.215.02.788.788,0,0,1,.663.41,3.678,3.678,0,0,1,.39.722.6.6,0,0,1-.215.487q-.214.176-.41.37a4.176,4.176,0,0,0-.683,1.385,5.649,5.649,0,0,0-.215,1.541v.936a2.387,2.387,0,0,0,.195.78q.2.507.449,1.073t.507,1.053q.253.487.41.722ZM85.878,6.045a14.8,14.8,0,0,0,.136,2.087,12.6,12.6,0,0,1,.137,1.774,4.67,4.67,0,0,1-.1.858,3.757,3.757,0,0,1-.331.975,2.3,2.3,0,0,1-.624.78,1.574,1.574,0,0,1-1.014.312,1.76,1.76,0,0,1-1.151-.488,1.441,1.441,0,0,1-.565-1.111q0-.2.02-.448t.059-.527q-.039-.663-.039-1.326V7.605q0-2.028.039-4.076t.039-4.271q0-1.638-.039-3.3t-.039-3.647q0-1.638-.136-3.179t-.137-3.179a1.615,1.615,0,0,1,.293-1.053,1.724,1.724,0,0,1,1.307-.351,1.722,1.722,0,0,1,1.462.507,4.291,4.291,0,0,1,.6,1.248q.312-.117.761-.273a2.392,2.392,0,0,1,.76-.156h.273a5.533,5.533,0,0,1,1.6.175,5.749,5.749,0,0,1,1.092.488l.117.078a.079.079,0,0,1,.058.019.079.079,0,0,0,.059.02A5.124,5.124,0,0,1,91.9-12.246a7.887,7.887,0,0,1,1.112,1.56,9,9,0,0,1,.741,1.794A6.4,6.4,0,0,1,94.029-7.1a6.525,6.525,0,0,1-.449,2.262,7.025,7.025,0,0,1-1.345,2.223A7.078,7.078,0,0,1,89.953-.936,7.467,7.467,0,0,1,86.7-.273h-.351a1.043,1.043,0,0,1-.39-.078A1.028,1.028,0,0,0,85.878.1V6.045ZM89.193-3.978A4.473,4.473,0,0,0,90.48-7.215,4.593,4.593,0,0,0,90.265-8.6a4.6,4.6,0,0,0-.624-1.267,3.861,3.861,0,0,0-.975-.975,3.126,3.126,0,0,0-1.306-.507l-.507.195a2.625,2.625,0,0,0-.565.292,3.215,3.215,0,0,0-.41.292.306.306,0,0,0-.059.078.211.211,0,0,1-.1.078,1.727,1.727,0,0,0-.078.741q0,.741.059,1.736t.059,1.384v1.326a14.214,14.214,0,0,0,.078,1.56q.078.7.39.7a5.479,5.479,0,0,0,1.073-.1,4.539,4.539,0,0,0,1.111-.409Zm7.02-2.5a11.8,11.8,0,0,1,.371-2.905,9.024,9.024,0,0,1,1.111-2.633A6.218,6.218,0,0,1,99.528-13.9a4.492,4.492,0,0,1,2.535-.721,4.652,4.652,0,0,1,1.774.312,3.811,3.811,0,0,1,1.268.819,3.352,3.352,0,0,1,.76,1.151A3.638,3.638,0,0,1,106.119-11a4.68,4.68,0,0,1-.332,1.735,4.687,4.687,0,0,1-.955,1.5,4.74,4.74,0,0,1-1.54,1.073,5.524,5.524,0,0,1-2.087.449,3.307,3.307,0,0,1-.9-.039q-.39-.078-.9-.234a1.735,1.735,0,0,0-.039.332v.214a5.244,5.244,0,0,0,.468,2.262,3.853,3.853,0,0,0,.936,1.229,2.585,2.585,0,0,0,.975.526,3.279,3.279,0,0,0,.624.117,3.482,3.482,0,0,0,2.008-.546l1.775-1.209q.195.078.429.176a1.029,1.029,0,0,1,.429.371,3.514,3.514,0,0,0,.078.37,1.6,1.6,0,0,1,.039.41,1.823,1.823,0,0,1-.293.916,3.4,3.4,0,0,1-.565.644A5.332,5.332,0,0,1,104.383.41,8.437,8.437,0,0,1,102.1.663,5.583,5.583,0,0,1,100.562.39,9.635,9.635,0,0,1,99.021-.2a7.244,7.244,0,0,1-1.463-1.4,5.94,5.94,0,0,1-.819-1.482A6.842,6.842,0,0,1,96.35-4.7Q96.252-5.538,96.213-6.474ZM99.606-8.58a2.907,2.907,0,0,0,.487.059q.332.019.527.019a2.917,2.917,0,0,0,2.048-.663,2.094,2.094,0,0,0,.721-1.6,1.792,1.792,0,0,0-.312-1.014.979.979,0,0,0-.858-.468,3.682,3.682,0,0,0-.76.078.844.844,0,0,0-.565.39,4.75,4.75,0,0,1-.351.39,2.1,2.1,0,0,0-.37.546,5.453,5.453,0,0,0-.331.878A7.382,7.382,0,0,0,99.606-8.58Zm9.828,8.034a2.477,2.477,0,0,0,.1-.722q.02-.527.02-1.306,0-.741-.02-1.6t-.039-1.58q-.02-.721-.039-1.248t-.02-.6V-8.892q0-.858-.058-1.716t-.1-1.716v-.156a1.586,1.586,0,0,0-.156-.682,1.673,1.673,0,0,1-.156-.721,1.855,1.855,0,0,1,.429-.78,1.366,1.366,0,0,1,.975-.273,1.912,1.912,0,0,1,1.053.253,1.672,1.672,0,0,1,.585.624,2.433,2.433,0,0,1,.254.839q.058.468.1.9l.117,2.067a4.532,4.532,0,0,0,.819-.917q.429-.6.9-1.307t.975-1.365a6.051,6.051,0,0,1,1.053-1.092,1.736,1.736,0,0,1,.78-.156,2.821,2.821,0,0,1,1.5.351,2.261,2.261,0,0,1,.877,1.131,2.112,2.112,0,0,1-.429.8q-.351.449-.8.936t-.936,1.014a9.449,9.449,0,0,0-.839,1.034,11.047,11.047,0,0,0-1.17,1.521,18.5,18.5,0,0,0-1.053,1.833,18.121,18.121,0,0,0-.78,1.775,4.109,4.109,0,0,0-.312,1.345q0,.312.019.878t.02.877a6.043,6.043,0,0,1-.078.956,2.629,2.629,0,0,1-.312.9,1.907,1.907,0,0,1-.624.663,1.832,1.832,0,0,1-1.014.254,1.608,1.608,0,0,1-1.189-.449,1.509,1.509,0,0,1-.449-1.112Zm10.647-5.928a11.8,11.8,0,0,1,.371-2.905,9.024,9.024,0,0,1,1.111-2.633A6.218,6.218,0,0,1,123.4-13.9a4.492,4.492,0,0,1,2.535-.721,4.652,4.652,0,0,1,1.774.312,3.811,3.811,0,0,1,1.268.819,3.352,3.352,0,0,1,.76,1.151A3.638,3.638,0,0,1,129.987-11a4.68,4.68,0,0,1-.331,1.735,4.687,4.687,0,0,1-.955,1.5,4.74,4.74,0,0,1-1.541,1.073,5.524,5.524,0,0,1-2.087.449,3.307,3.307,0,0,1-.9-.039q-.39-.078-.9-.234a1.735,1.735,0,0,0-.039.332v.214a5.244,5.244,0,0,0,.468,2.262,3.853,3.853,0,0,0,.936,1.229,2.585,2.585,0,0,0,.975.526,3.279,3.279,0,0,0,.624.117,3.482,3.482,0,0,0,2.009-.546l1.774-1.209q.2.078.429.176a1.029,1.029,0,0,1,.429.371,3.514,3.514,0,0,0,.078.37,1.6,1.6,0,0,1,.039.41,1.823,1.823,0,0,1-.292.916,3.4,3.4,0,0,1-.566.644A5.332,5.332,0,0,1,128.252.41a8.438,8.438,0,0,1-2.282.254A5.583,5.583,0,0,1,124.43.39a9.635,9.635,0,0,1-1.54-.585,7.244,7.244,0,0,1-1.463-1.4,5.94,5.94,0,0,1-.819-1.482,6.842,6.842,0,0,1-.39-1.618Q120.12-5.538,120.081-6.474Zm3.393-2.106a2.907,2.907,0,0,0,.487.059q.332.019.527.019a2.917,2.917,0,0,0,2.048-.663,2.094,2.094,0,0,0,.721-1.6,1.792,1.792,0,0,0-.312-1.014.979.979,0,0,0-.858-.468,3.682,3.682,0,0,0-.76.078.844.844,0,0,0-.566.39,4.748,4.748,0,0,1-.351.39,2.1,2.1,0,0,0-.37.546,5.453,5.453,0,0,0-.331.878A7.382,7.382,0,0,0,123.474-8.58Z" transform="translate(30.238 100.939) rotate(-28.19)" fill="#fff"/>
        <path id="Caminho_167" data-name="Caminho 167" d="M5.5,6.045a14.8,14.8,0,0,0,.136,2.087,12.6,12.6,0,0,1,.137,1.774,4.67,4.67,0,0,1-.1.858,3.758,3.758,0,0,1-.331.975,2.3,2.3,0,0,1-.624.78,1.574,1.574,0,0,1-1.014.312,1.76,1.76,0,0,1-1.15-.488,1.441,1.441,0,0,1-.566-1.111q0-.2.02-.448t.059-.527q-.039-.663-.039-1.326V7.605q0-2.028.039-4.076T2.106-.741q0-1.638-.039-3.3T2.028-7.683q0-1.638-.137-3.179T1.755-14.04a1.615,1.615,0,0,1,.293-1.053,1.724,1.724,0,0,1,1.306-.351,1.722,1.722,0,0,1,1.463.507,4.292,4.292,0,0,1,.6,1.248q.312-.117.76-.273a2.392,2.392,0,0,1,.76-.156h.273a5.533,5.533,0,0,1,1.6.175,5.749,5.749,0,0,1,1.092.488l.117.078a.079.079,0,0,1,.059.019.079.079,0,0,0,.059.02,5.124,5.124,0,0,1,1.385,1.092,7.887,7.887,0,0,1,1.111,1.56,9,9,0,0,1,.741,1.794A6.4,6.4,0,0,1,13.65-7.1,6.525,6.525,0,0,1,13.2-4.836a7.025,7.025,0,0,1-1.345,2.223A7.078,7.078,0,0,1,9.575-.936a7.467,7.467,0,0,1-3.257.663H5.967a1.043,1.043,0,0,1-.39-.078A1.028,1.028,0,0,0,5.5.1V6.045ZM8.814-3.978A4.473,4.473,0,0,0,10.1-7.215,4.592,4.592,0,0,0,9.887-8.6a4.6,4.6,0,0,0-.624-1.267,3.861,3.861,0,0,0-.975-.975,3.126,3.126,0,0,0-1.306-.507l-.507.195a2.625,2.625,0,0,0-.566.292,3.215,3.215,0,0,0-.41.292.306.306,0,0,0-.058.078.211.211,0,0,1-.1.078,1.727,1.727,0,0,0-.078.741q0,.741.058,1.736t.059,1.384v1.326a14.212,14.212,0,0,0,.078,1.56q.078.7.39.7a5.478,5.478,0,0,0,1.073-.1,4.539,4.539,0,0,0,1.111-.409ZM16.458-.546a2.478,2.478,0,0,0,.1-.722q.02-.527.02-1.306,0-.741-.02-1.6t-.039-1.58Q16.5-6.474,16.478-7t-.02-.6V-8.892q0-.858-.059-1.716t-.1-1.716v-.156a1.586,1.586,0,0,0-.156-.682,1.673,1.673,0,0,1-.156-.721,1.855,1.855,0,0,1,.429-.78,1.366,1.366,0,0,1,.975-.273,1.912,1.912,0,0,1,1.053.253,1.672,1.672,0,0,1,.585.624,2.433,2.433,0,0,1,.253.839q.059.468.1.9l.117,2.067a4.532,4.532,0,0,0,.819-.917q.429-.6.9-1.307t.975-1.365a6.051,6.051,0,0,1,1.053-1.092,1.737,1.737,0,0,1,.78-.156,2.821,2.821,0,0,1,1.5.351,2.261,2.261,0,0,1,.877,1.131,2.112,2.112,0,0,1-.429.8q-.351.449-.8.936t-.936,1.014A9.448,9.448,0,0,0,23.4-9.828a11.047,11.047,0,0,0-1.17,1.521,18.5,18.5,0,0,0-1.053,1.833A18.122,18.122,0,0,0,20.4-4.7a4.11,4.11,0,0,0-.312,1.345q0,.312.019.878t.02.877a6.043,6.043,0,0,1-.078.956,2.629,2.629,0,0,1-.312.9,1.907,1.907,0,0,1-.624.663A1.832,1.832,0,0,1,18.1,1.17a1.608,1.608,0,0,1-1.19-.449A1.509,1.509,0,0,1,16.458-.39ZM40.326-.7q.117.312.234.644a1.928,1.928,0,0,1,.117.644.729.729,0,0,1-.175.507,1.3,1.3,0,0,1-.429.312,2.505,2.505,0,0,1-.527.175,2.43,2.43,0,0,1-.507.059A1.482,1.482,0,0,1,37.752.761a8.164,8.164,0,0,1-.819-2.184q-.312-1.306-.526-2.769T36-6.825a6.932,6.932,0,0,1-.761,2.067,12.748,12.748,0,0,1-1.618,2.4A11.319,11.319,0,0,1,31.473-.39a4.061,4.061,0,0,1-2.34.819,2.907,2.907,0,0,1-1.54-.371,2.577,2.577,0,0,1-.917-.917,3.722,3.722,0,0,1-.429-1.229,7.533,7.533,0,0,1-.117-1.267,10.234,10.234,0,0,1,.644-3.179,17.993,17.993,0,0,1,1.755-3.686A13.237,13.237,0,0,1,31.1-13.28a4.671,4.671,0,0,1,3.1-1.267,3.209,3.209,0,0,1,.8.117,9.3,9.3,0,0,1,.916.292,5.68,5.68,0,0,1,.9.429,8.168,8.168,0,0,1,.741.487,2.706,2.706,0,0,1,.9,1.482,15.233,15.233,0,0,1,.351,1.95q.273,1.95.429,3.53a24.025,24.025,0,0,0,.585,3.334l.234,1.443Zm-11-2.028a.079.079,0,0,0,.02.058.079.079,0,0,1,.02.059,2.072,2.072,0,0,0,1.17-.683,12.484,12.484,0,0,0,1.326-1.541,18.874,18.874,0,0,0,1.228-1.891A11.092,11.092,0,0,0,33.93-8.5q.156-.351.37-.78t.429-.877A8.357,8.357,0,0,0,35.08-11a2.072,2.072,0,0,0,.137-.663q-.2-.078-.351-.156a.774.774,0,0,0-.351-.078,2.092,2.092,0,0,0-1.521.663,7.541,7.541,0,0,0-1.15,1.482,12.038,12.038,0,0,0-.8,1.579,9.39,9.39,0,0,1-.429.956A11.844,11.844,0,0,0,29.7-5.109a7,7,0,0,0-.371,2.184ZM54.756,5.889q0-1.092-.1-2.087t-.1-2.009q0-.78.02-1.658t.02-1.658v-.741q-.234.039-.429.059t-.39.02a2.463,2.463,0,0,1-1.638-.468A1.519,1.519,0,0,1,51.6-3.861a.605.605,0,0,1,.331-.546,3.053,3.053,0,0,1,.78-.312q.448-.117.936-.195a5.358,5.358,0,0,0,.839-.2q.078-3.315.254-6.279t.175-5.07q0-.936.078-2.126t.234-2.32a16.614,16.614,0,0,1,.41-2.067,3.726,3.726,0,0,1,.643-1.4l.156-.2a9.322,9.322,0,0,1,.78-.839,1.517,1.517,0,0,1,1.092-.41,1.212,1.212,0,0,1,.487.137,6.392,6.392,0,0,1,.585.312,2.141,2.141,0,0,1,.487.39.6.6,0,0,1,.195.37,1.84,1.84,0,0,1-.078.6,1.425,1.425,0,0,1-.195.371,1.919,1.919,0,0,1-.273.292,2.584,2.584,0,0,0-.312.331,3.056,3.056,0,0,0-.41.8,6.833,6.833,0,0,0-.273.975q-.1.488-.156.917a5.268,5.268,0,0,0-.058.663q-.156,1.833-.293,3.315T57.8-13.514q-.078,1.346-.137,2.652T57.6-8.151q0,.273-.019.682t-.02.643a1.069,1.069,0,0,0,.1.6,1.069,1.069,0,0,0,.6.1,5.126,5.126,0,0,0,.917-.1q.526-.1,1.053-.234t.975-.234a3.5,3.5,0,0,1,.682-.1q.7,0,.878.293a2.225,2.225,0,0,1,.253.8,1.5,1.5,0,0,1-.955,1.131,14.357,14.357,0,0,1-1.775.682,15.325,15.325,0,0,0-1.716.644,1.107,1.107,0,0,0-.78,1.014q0,2.067.1,4.232t.195,4.056q.1,1.891.195,3.354t.1,2.165q0,.819-.468.994a2.754,2.754,0,0,1-.975.176,1.377,1.377,0,0,1-1.248-.7,5.432,5.432,0,0,1-.643-1.7A11.825,11.825,0,0,1,54.8,8.288q-.039-1.073-.039-1.852ZM78.156-.7q.117.312.234.644a1.928,1.928,0,0,1,.117.644.729.729,0,0,1-.175.507A1.3,1.3,0,0,1,77.9,1.4a2.505,2.505,0,0,1-.527.175,2.43,2.43,0,0,1-.507.059A1.482,1.482,0,0,1,75.582.761a8.164,8.164,0,0,1-.819-2.184q-.312-1.306-.526-2.769t-.41-2.633a6.932,6.932,0,0,1-.761,2.067,12.748,12.748,0,0,1-1.618,2.4A11.319,11.319,0,0,1,69.3-.39a4.061,4.061,0,0,1-2.34.819A2.907,2.907,0,0,1,65.423.058a2.577,2.577,0,0,1-.916-.917,3.722,3.722,0,0,1-.429-1.229,7.533,7.533,0,0,1-.117-1.267A10.234,10.234,0,0,1,64.6-6.533a17.993,17.993,0,0,1,1.755-3.686,13.237,13.237,0,0,1,2.574-3.061,4.671,4.671,0,0,1,3.1-1.267,3.209,3.209,0,0,1,.8.117,9.3,9.3,0,0,1,.916.292,5.68,5.68,0,0,1,.9.429,8.168,8.168,0,0,1,.741.487,2.706,2.706,0,0,1,.9,1.482,15.232,15.232,0,0,1,.351,1.95q.273,1.95.429,3.53a24.024,24.024,0,0,0,.585,3.334l.234,1.443Zm-11-2.028a.079.079,0,0,0,.02.058.079.079,0,0,1,.019.059,2.072,2.072,0,0,0,1.17-.683,12.485,12.485,0,0,0,1.326-1.541,18.874,18.874,0,0,0,1.229-1.891A11.093,11.093,0,0,0,71.76-8.5q.156-.351.37-.78t.429-.877A8.357,8.357,0,0,0,72.91-11a2.072,2.072,0,0,0,.137-.663q-.195-.078-.351-.156a.774.774,0,0,0-.351-.078,2.092,2.092,0,0,0-1.521.663A7.541,7.541,0,0,0,69.674-9.75a12.039,12.039,0,0,0-.8,1.579,9.39,9.39,0,0,1-.429.956,11.844,11.844,0,0,0-.916,2.106,7,7,0,0,0-.37,2.184Zm14.313.195q1.482-2.457,3.159-4.8a29.189,29.189,0,0,0,2.808-4.8,4.8,4.8,0,0,0-1.268.175q-.644.176-1.306.37t-1.384.371a6.166,6.166,0,0,1-1.463.175,1.939,1.939,0,0,1-1.17-.585,2.825,2.825,0,0,1-.624-1.131,1.149,1.149,0,0,1,.292-.819,1.828,1.828,0,0,1,.722-.468,4.928,4.928,0,0,1,.936-.234q.507-.078.936-.156a5.382,5.382,0,0,1,1.17-.312q.7-.117,1.345-.195t1.073-.1q.429-.019.39-.019.195-.039.312-.059a1.982,1.982,0,0,1,.312-.019,3.98,3.98,0,0,1,2.2.546,2.429,2.429,0,0,1,.839,2.184,3.783,3.783,0,0,1-.215,1.131,12.478,12.478,0,0,1-.526,1.345,13.771,13.771,0,0,1-.683,1.306q-.371.624-.683,1.053a20.046,20.046,0,0,1-1.774,2.73A22.994,22.994,0,0,0,85.1-2.184q0,.39.136.468a.748.748,0,0,0,.37.078,7.138,7.138,0,0,0,1.579-.156q.683-.156,1.307-.332t1.287-.331a6.874,6.874,0,0,1,1.56-.156,1.688,1.688,0,0,1,1.073.351,1.211,1.211,0,0,1,.448,1.014,1.323,1.323,0,0,1-.253.858,1.984,1.984,0,0,1-.624.507A3.318,3.318,0,0,1,91.2.41q-.41.1-.761.176Q90.012.7,89.154.9t-1.755.37q-.9.175-1.677.312a7.559,7.559,0,0,1-1.053.137,10.421,10.421,0,0,1-1.209-.078,4.419,4.419,0,0,1-1.248-.332,3.011,3.011,0,0,1-.994-.683,1.57,1.57,0,0,1-.41-1.131q0-.468.02-.7a1.263,1.263,0,0,1,.1-.41,2.242,2.242,0,0,1,.215-.37Q81.276-2.184,81.471-2.535ZM93.834-6.474A11.8,11.8,0,0,1,94.2-9.38a9.024,9.024,0,0,1,1.111-2.633A6.218,6.218,0,0,1,97.149-13.9a4.492,4.492,0,0,1,2.535-.721,4.652,4.652,0,0,1,1.774.312,3.811,3.811,0,0,1,1.268.819,3.352,3.352,0,0,1,.76,1.151A3.638,3.638,0,0,1,103.74-11a4.68,4.68,0,0,1-.332,1.735,4.687,4.687,0,0,1-.955,1.5,4.74,4.74,0,0,1-1.54,1.073,5.524,5.524,0,0,1-2.087.449,3.307,3.307,0,0,1-.9-.039q-.39-.078-.9-.234a1.735,1.735,0,0,0-.039.332v.214a5.244,5.244,0,0,0,.468,2.262A3.853,3.853,0,0,0,98.4-2.477a2.585,2.585,0,0,0,.975.526,3.279,3.279,0,0,0,.624.117A3.482,3.482,0,0,0,102-2.379l1.775-1.209q.195.078.429.176a1.029,1.029,0,0,1,.429.371,3.514,3.514,0,0,0,.078.37,1.6,1.6,0,0,1,.039.41,1.823,1.823,0,0,1-.293.916A3.4,3.4,0,0,1,103.9-.7,5.332,5.332,0,0,1,102,.41a8.437,8.437,0,0,1-2.281.254A5.583,5.583,0,0,1,98.183.39,9.635,9.635,0,0,1,96.642-.2,7.244,7.244,0,0,1,95.18-1.6a5.94,5.94,0,0,1-.819-1.482,6.842,6.842,0,0,1-.39-1.618Q93.873-5.538,93.834-6.474ZM97.227-8.58a2.907,2.907,0,0,0,.487.059q.332.019.527.019a2.917,2.917,0,0,0,2.048-.663,2.094,2.094,0,0,0,.721-1.6,1.792,1.792,0,0,0-.312-1.014.979.979,0,0,0-.858-.468,3.682,3.682,0,0,0-.76.078.844.844,0,0,0-.565.39,4.75,4.75,0,0,1-.351.39,2.1,2.1,0,0,0-.37.546,5.453,5.453,0,0,0-.331.878A7.382,7.382,0,0,0,97.227-8.58Zm9.828,8.034a2.477,2.477,0,0,0,.1-.722q.02-.527.02-1.306,0-.741-.02-1.6t-.039-1.58q-.02-.721-.039-1.248t-.02-.6V-8.892q0-.858-.058-1.716t-.1-1.716v-.156a1.586,1.586,0,0,0-.156-.682,1.673,1.673,0,0,1-.156-.721,1.855,1.855,0,0,1,.429-.78,1.366,1.366,0,0,1,.975-.273,1.912,1.912,0,0,1,1.053.253,1.672,1.672,0,0,1,.585.624,2.433,2.433,0,0,1,.254.839q.058.468.1.9l.117,2.067a4.532,4.532,0,0,0,.819-.917q.429-.6.9-1.307t.975-1.365a6.051,6.051,0,0,1,1.053-1.092,1.736,1.736,0,0,1,.78-.156,2.821,2.821,0,0,1,1.5.351A2.261,2.261,0,0,1,117-13.611a2.112,2.112,0,0,1-.429.8q-.351.449-.8.936t-.936,1.014A9.449,9.449,0,0,0,114-9.828a11.047,11.047,0,0,0-1.17,1.521,18.5,18.5,0,0,0-1.053,1.833,18.121,18.121,0,0,0-.78,1.775,4.109,4.109,0,0,0-.312,1.345q0,.312.019.878t.02.877a6.043,6.043,0,0,1-.078.956,2.629,2.629,0,0,1-.312.9,1.907,1.907,0,0,1-.624.663,1.832,1.832,0,0,1-1.014.254A1.608,1.608,0,0,1,107.5.722a1.509,1.509,0,0,1-.449-1.112ZM131.7-11.973v1.229q0,.449.02.839t.02.507a15.412,15.412,0,0,1,.8-1.4q.448-.7,1.463-1.989.078-.078.351-.312a5.594,5.594,0,0,1,.721-.507,5.212,5.212,0,0,1,1.014-.468,3.623,3.623,0,0,1,1.189-.195,2.735,2.735,0,0,1,1.892.644,4.5,4.5,0,0,1,1.131,1.58,7.78,7.78,0,0,1,.566,2.028,13.946,13.946,0,0,1,.156,1.95q0,.468-.078,1.326a12.883,12.883,0,0,1-.312,1.833,12.012,12.012,0,0,1-.643,1.93,4.647,4.647,0,0,1-1.073,1.58,6.119,6.119,0,0,1-2.106,1.248,6.605,6.605,0,0,1-2.184.429A11.961,11.961,0,0,1,132.7.117a14.23,14.23,0,0,1-1.853-.429,1.223,1.223,0,0,1-.449-.449,7.948,7.948,0,0,1-.429-.761,6.84,6.84,0,0,1-.37-.9q-.156-.468-.273-.9a1.863,1.863,0,0,1-.234-.76q-.117-.644-.215-1.521T128.72-7.43q-.059-.955-.059-1.7,0-3.276.117-6.533t.585-7.078a13.061,13.061,0,0,1,.078-1.443,8.4,8.4,0,0,1,.312-1.482,1.064,1.064,0,0,1,.878-.721,6.04,6.04,0,0,1,1.15-.136,1.463,1.463,0,0,1,.663.156.729.729,0,0,1,.39.546q-.195,2.5-.546,4.719a37.864,37.864,0,0,0-.429,4.719Zm1.989,4.68q-.195.585-.37,1.073t-.312.994q-.137.507-.234,1.073a11.145,11.145,0,0,0-.137,1.267,1.613,1.613,0,0,0,.819.546,5.347,5.347,0,0,0,1.014.078A2.544,2.544,0,0,0,136.052-3a4.524,4.524,0,0,0,.955-1.521,7.631,7.631,0,0,0,.468-1.931,17.222,17.222,0,0,0,.117-1.93q0-.351-.02-.819a4.975,4.975,0,0,0-.117-.9,3.291,3.291,0,0,0-.253-.741q-.156-.312-.39-.312a1.285,1.285,0,0,0-.683.39,8.151,8.151,0,0,0-.916.956,13.364,13.364,0,0,0-.878,1.189,4.9,4.9,0,0,0-.566,1.092ZM148.4.234a2.017,2.017,0,0,1-1.189-.37q-.526-.371-1.111-.722a5.308,5.308,0,0,1-1.989-1.95,5.815,5.815,0,0,1-.7-2.964A8.774,8.774,0,0,1,143.7-7.82q.292-1.189.526-2.2a5.756,5.756,0,0,1,.546-1.19,8.528,8.528,0,0,1,1.072-1.482,7.6,7.6,0,0,1,1.463-1.268,2.99,2.99,0,0,1,1.677-.546,1.258,1.258,0,0,1,.7.234,6.668,6.668,0,0,0,1.131.585q.585.234,1.189.468t1.189.507a4.881,4.881,0,0,1,1.092.7,2.386,2.386,0,0,1,.663.858q.234.507.468.975a2.255,2.255,0,0,1,.234.8q.039.41.039.839V-7.8a6.072,6.072,0,0,1-.488,2.242,14.236,14.236,0,0,1-1.072,2.009q-.312.507-.819,1.17a10.215,10.215,0,0,1-1.131,1.248,7.719,7.719,0,0,1-1.307.995,2.664,2.664,0,0,1-1.385.41q-.195,0-.41-.019t-.448-.02Zm3.822-9.321a1.78,1.78,0,0,0-.819-1.638,3.343,3.343,0,0,0-1.794-.507,1.722,1.722,0,0,0-1.326.6,5.557,5.557,0,0,0-.936,1.482,8.024,8.024,0,0,0-.566,1.872,10.162,10.162,0,0,0-.175,1.736q0,.156.058.624a5.744,5.744,0,0,0,.215.975,2.9,2.9,0,0,0,.449.9.908.908,0,0,0,.76.39,2.136,2.136,0,0,0,.78-.136q.351-.136.78-.332a3.811,3.811,0,0,0,1.092-1.053,6.367,6.367,0,0,0,.761-1.443,10.849,10.849,0,0,0,.468-1.638,16.268,16.268,0,0,0,.254-1.638Zm9.438,3.549a3.982,3.982,0,0,0,.878-1.4q.331-.858.643-1.638l.078-.234a15.47,15.47,0,0,1,.7-1.541,12.323,12.323,0,0,1,1.092-1.755,7.51,7.51,0,0,1,1.365-1.423,2.435,2.435,0,0,1,1.521-.585,1.88,1.88,0,0,1,.994.624,3.21,3.21,0,0,1,.507.956q.176.526.312,1.092a5.8,5.8,0,0,0,.37,1.072,11.165,11.165,0,0,1,.761,2.418q.253,1.287.429,2.613t.41,2.613a11.03,11.03,0,0,0,.7,2.379,1.13,1.13,0,0,1-.683.917,2.518,2.518,0,0,1-1.072.293,1.281,1.281,0,0,1-1.092-.527,3.937,3.937,0,0,1-.6-1.287,10.293,10.293,0,0,1-.312-1.58A8.914,8.914,0,0,0,168.4-3.9a10.479,10.479,0,0,1-.312-1.5q-.117-.839-.273-1.7a16.151,16.151,0,0,0-.37-1.6,3.3,3.3,0,0,0-.6-1.209,15.954,15.954,0,0,0-1.072,1.97q-.409.916-.741,1.755t-.644,1.638a12.23,12.23,0,0,1-.78,1.619,12.216,12.216,0,0,1-1.131,1.755,4.674,4.674,0,0,1-.936.917,2,2,0,0,1-.819.351,5,5,0,0,1-.741.058,1.8,1.8,0,0,1-.955-.39,1.125,1.125,0,0,1-.566-.936q0-2.457.02-4.563t.02-4.446q0-.663-.039-1.346t-.039-1.345a2.5,2.5,0,0,1,.176-.916,1.132,1.132,0,0,1,.6-.644q.234,0,.468-.02t.429-.019a1.08,1.08,0,0,1,.8.292,1.753,1.753,0,0,1,.429.722,4.061,4.061,0,0,1,.176.9q.039.468.039.78a3.365,3.365,0,0,0,.1.819,3.365,3.365,0,0,1,.1.819q0,1.443-.039,2.457t-.039,1.95Zm17.511-2.106q.78,1.482,1.443,2.984a8.266,8.266,0,0,1,.663,3.374,5.042,5.042,0,0,1-.331,1.833,5,5,0,0,1-.917,1.521,4.337,4.337,0,0,1-1.4,1.053,4.03,4.03,0,0,1-1.755.39,2.146,2.146,0,0,1-1.5-.644A2.275,2.275,0,0,1,174.6,1.4,1.774,1.774,0,0,1,174.9.956,1.414,1.414,0,0,1,175.5.7a1.348,1.348,0,0,0,.936.468,1.514,1.514,0,0,0,1.17-.585A2.182,2.182,0,0,0,178.113-.9a1.141,1.141,0,0,0-.039-.39,17.185,17.185,0,0,0-1.092-3.179q-.663-1.423-1.306-2.672T174.564-9.5a5.734,5.734,0,0,1-.468-2.243,12.453,12.453,0,0,1,.156-1.93,7.121,7.121,0,0,1,.546-1.853,3.951,3.951,0,0,1,1.033-1.4,2.473,2.473,0,0,1,1.658-.546,1.1,1.1,0,0,1,.215.019,1.1,1.1,0,0,0,.214.02.788.788,0,0,1,.663.41,3.677,3.677,0,0,1,.39.722.6.6,0,0,1-.214.487q-.214.176-.41.37a4.176,4.176,0,0,0-.682,1.385,5.649,5.649,0,0,0-.215,1.541v.936a2.387,2.387,0,0,0,.2.78q.195.507.449,1.073t.507,1.053q.254.487.41.722Z" transform="translate(22.236 142.29) rotate(-28.19)" fill="#fff"/>
        <path id="Caminho_166" data-name="Caminho 166" d="M5.226-5.538a3.982,3.982,0,0,0,.878-1.4q.331-.858.643-1.638l.078-.234a15.468,15.468,0,0,1,.7-1.541A12.323,12.323,0,0,1,8.619-12.11a7.51,7.51,0,0,1,1.365-1.423,2.435,2.435,0,0,1,1.521-.585,1.88,1.88,0,0,1,.994.624,3.211,3.211,0,0,1,.507.956q.175.526.312,1.092a5.8,5.8,0,0,0,.37,1.072,11.164,11.164,0,0,1,.761,2.418q.253,1.287.429,2.613t.41,2.613a11.03,11.03,0,0,0,.7,2.379,1.13,1.13,0,0,1-.682.917,2.518,2.518,0,0,1-1.073.293A1.281,1.281,0,0,1,13.143.332a3.937,3.937,0,0,1-.6-1.287,10.291,10.291,0,0,1-.312-1.58A8.913,8.913,0,0,0,11.973-3.9a10.479,10.479,0,0,1-.312-1.5q-.117-.839-.273-1.7a16.147,16.147,0,0,0-.371-1.6,3.3,3.3,0,0,0-.6-1.209,15.954,15.954,0,0,0-1.073,1.97Q8.931-7.02,8.6-6.181T7.956-4.544a12.231,12.231,0,0,1-.78,1.619A12.216,12.216,0,0,1,6.045-1.17a4.674,4.674,0,0,1-.936.917A2,2,0,0,1,4.29.1a5,5,0,0,1-.741.058,1.8,1.8,0,0,1-.956-.39,1.125,1.125,0,0,1-.566-.936q0-2.457.02-4.563t.02-4.446q0-.663-.039-1.346T1.989-12.87a2.5,2.5,0,0,1,.176-.916,1.132,1.132,0,0,1,.6-.644q.234,0,.468-.02t.429-.019a1.08,1.08,0,0,1,.8.292,1.753,1.753,0,0,1,.429.722,4.061,4.061,0,0,1,.175.9q.039.468.039.78a3.365,3.365,0,0,0,.1.819,3.365,3.365,0,0,1,.1.819q0,1.443-.039,2.457t-.039,1.95ZM17.94-6.474a11.8,11.8,0,0,1,.371-2.905,9.024,9.024,0,0,1,1.111-2.633A6.218,6.218,0,0,1,21.255-13.9a4.492,4.492,0,0,1,2.535-.721,4.652,4.652,0,0,1,1.774.312,3.811,3.811,0,0,1,1.267.819,3.352,3.352,0,0,1,.76,1.151A3.638,3.638,0,0,1,27.846-11a4.68,4.68,0,0,1-.332,1.735,4.687,4.687,0,0,1-.955,1.5,4.74,4.74,0,0,1-1.541,1.073,5.524,5.524,0,0,1-2.087.449,3.307,3.307,0,0,1-.9-.039q-.39-.078-.9-.234a1.735,1.735,0,0,0-.039.332q0,.137,0,.214a5.244,5.244,0,0,0,.468,2.262A3.853,3.853,0,0,0,22.5-2.477a2.585,2.585,0,0,0,.975.526,3.279,3.279,0,0,0,.624.117,3.482,3.482,0,0,0,2.008-.546l1.774-1.209q.195.078.429.176a1.029,1.029,0,0,1,.429.371,3.514,3.514,0,0,0,.078.37,1.6,1.6,0,0,1,.039.41,1.823,1.823,0,0,1-.292.916A3.4,3.4,0,0,1,28-.7,5.332,5.332,0,0,1,26.111.41a8.437,8.437,0,0,1-2.281.254A5.583,5.583,0,0,1,22.288.39,9.635,9.635,0,0,1,20.748-.2a7.244,7.244,0,0,1-1.463-1.4,5.94,5.94,0,0,1-.819-1.482,6.843,6.843,0,0,1-.39-1.618Q17.979-5.538,17.94-6.474ZM21.333-8.58a2.907,2.907,0,0,0,.488.059q.331.019.526.019a2.917,2.917,0,0,0,2.048-.663,2.094,2.094,0,0,0,.722-1.6,1.792,1.792,0,0,0-.312-1.014.979.979,0,0,0-.858-.468,3.682,3.682,0,0,0-.76.078.844.844,0,0,0-.566.39,4.749,4.749,0,0,1-.351.39,2.1,2.1,0,0,0-.371.546,5.453,5.453,0,0,0-.331.878A7.383,7.383,0,0,0,21.333-8.58Zm17.784-4.8a2.41,2.41,0,0,1,.37-.117,2.41,2.41,0,0,0,.371-.117,6.238,6.238,0,0,0,.76.117,5.42,5.42,0,0,1,.956.195q.078.9.215,1.716a10.941,10.941,0,0,1,.136,1.794q0,2.769.176,5.811t.175,6.942A25.512,25.512,0,0,1,42,6.689a9.88,9.88,0,0,1-1.209,3.49,4.286,4.286,0,0,0-.585.878,5.208,5.208,0,0,1-.741,1.053,4.629,4.629,0,0,1-1.189.936,4.806,4.806,0,0,1-1.892.526q-.585-.2-.975-.332t-.585-.955a2.9,2.9,0,0,1,.995-1.19,6.944,6.944,0,0,0,1.384-1.384,8.181,8.181,0,0,0,1.229-2.594,17.241,17.241,0,0,0,.526-4.856V.6q0-.8-.039-1.58t-.1-1.6q-.059-.819-.175-1.794a15.7,15.7,0,0,1-.839,1.54,6.142,6.142,0,0,1-1.092,1.307A6.036,6.036,0,0,1,35.2-.526a7.068,7.068,0,0,1-2.087.565Q32.565-.234,32-.585A5.729,5.729,0,0,1,30.966-1.4a4.029,4.029,0,0,1-.76-1.053,2.925,2.925,0,0,1-.292-1.326,1.183,1.183,0,0,1,.039-.351q.273-.936.9-2.613a23.327,23.327,0,0,1,1.56-3.334,11.979,11.979,0,0,1,2.223-2.867,4.157,4.157,0,0,1,2.925-1.209,2.564,2.564,0,0,1,.624.078,5.745,5.745,0,0,1,.624.2Zm-5.3,10.452a2.108,2.108,0,0,0,1.19-.7,8.013,8.013,0,0,0,1.17-1.619,18.437,18.437,0,0,0,1.073-2.262q.507-1.267.936-2.671a5.936,5.936,0,0,1,.137-.839,3.608,3.608,0,0,0,.1-.839,2.509,2.509,0,0,0-1.053.273A3.044,3.044,0,0,0,36.6-11a5.751,5.751,0,0,0-.6.76q-.273.409-.585.8-.312.663-.722,1.385t-.78,1.462a12,12,0,0,0-.624,1.482,4.445,4.445,0,0,0-.253,1.443Q33.033-3.042,33.813-2.925ZM50,.234a2.017,2.017,0,0,1-1.189-.37Q48.282-.507,47.7-.858a5.308,5.308,0,0,1-1.989-1.95,5.816,5.816,0,0,1-.7-2.964A8.774,8.774,0,0,1,45.3-7.82q.292-1.189.527-2.2a5.755,5.755,0,0,1,.546-1.19,8.529,8.529,0,0,1,1.073-1.482,7.6,7.6,0,0,1,1.462-1.268,2.99,2.99,0,0,1,1.677-.546,1.258,1.258,0,0,1,.7.234,6.668,6.668,0,0,0,1.131.585q.585.234,1.189.468t1.19.507a4.881,4.881,0,0,1,1.092.7,2.386,2.386,0,0,1,.663.858q.234.507.468.975a2.255,2.255,0,0,1,.234.8q.039.41.039.839V-7.8A6.072,6.072,0,0,1,56.8-5.558a14.236,14.236,0,0,1-1.073,2.009q-.312.507-.819,1.17a10.215,10.215,0,0,1-1.131,1.248,7.718,7.718,0,0,1-1.306.995,2.664,2.664,0,0,1-1.384.41q-.2,0-.41-.019t-.449-.02ZM53.82-9.087A1.78,1.78,0,0,0,53-10.725a3.343,3.343,0,0,0-1.794-.507,1.722,1.722,0,0,0-1.326.6,5.557,5.557,0,0,0-.936,1.482,8.023,8.023,0,0,0-.566,1.872A10.161,10.161,0,0,0,48.2-5.538q0,.156.059.624a5.744,5.744,0,0,0,.215.975,2.9,2.9,0,0,0,.448.9.908.908,0,0,0,.761.39,2.136,2.136,0,0,0,.78-.136q.351-.136.78-.332a3.811,3.811,0,0,0,1.092-1.053,6.367,6.367,0,0,0,.76-1.443,10.85,10.85,0,0,0,.468-1.638,16.268,16.268,0,0,0,.253-1.638ZM51.168-17.2a1.732,1.732,0,0,1-1.482.624,1.469,1.469,0,0,1-.585-.117.458.458,0,0,1-.273-.468,4.322,4.322,0,0,1,.429-1.287A18.529,18.529,0,0,1,50.33-20.26l1.541-2.281q1.365-1.989,2.165-3.159t1.072-1.6a.751.751,0,0,1,.663-.351,1.123,1.123,0,0,1,.994.488,1.867,1.867,0,0,1,.332,1.072,4.525,4.525,0,0,1-.878,2.34q-.8,1.131-1.852,2.535ZM67.2-2.028a1,1,0,0,1,.76.312,1.1,1.1,0,0,1,.293.78.887.887,0,0,1-.215.624,1.312,1.312,0,0,1-.565.351,4.291,4.291,0,0,1-.8.176q-.448.059-.877.1-.663-.2-1.268-.351A3.908,3.908,0,0,1,63.3-.624q-.975-.819-1.891-1.755a6.8,6.8,0,0,1-1.424-2.145,2,2,0,0,1-.332-.624,8.092,8.092,0,0,1-.234-.8,6.16,6.16,0,0,1-.136-.78,6.013,6.013,0,0,1-.039-.6,8.179,8.179,0,0,1,.175-1.638,8.646,8.646,0,0,1,.527-1.677,7.384,7.384,0,0,1,.858-1.5A4.842,4.842,0,0,1,62.01-13.3l1.482-.663q.546-.156,1.092-.351a3.453,3.453,0,0,1,1.17-.195A2.639,2.639,0,0,1,67-14.177a2.072,2.072,0,0,1,.585,1.151,2.1,2.1,0,0,1-.234.546.96.96,0,0,1-.585.468,2.628,2.628,0,0,1-.839.234,2.255,2.255,0,0,0-.8.234,5.351,5.351,0,0,0-1.053.624,7.732,7.732,0,0,0-.624.546,1.781,1.781,0,0,0-.39.546,2.147,2.147,0,0,0-.39.975,6.973,6.973,0,0,0-.078.975,5.514,5.514,0,0,0,.254,1.638A8.541,8.541,0,0,0,63.492-4.7a6.081,6.081,0,0,0,.878,1.248,3.765,3.765,0,0,0,.916.76,1.976,1.976,0,0,0,1.4.663Zm4.524-20.865a.985.985,0,0,1,.7-.2,2.52,2.52,0,0,1,.8.137,2.808,2.808,0,0,1,.76.39,2.334,2.334,0,0,1,.565.566,1.15,1.15,0,0,1,.215.663,1.13,1.13,0,0,1-.37.994,1.813,1.813,0,0,1-1.034.254,3,3,0,0,1-.878-.136,4.1,4.1,0,0,1-.8-.331,2.542,2.542,0,0,1-.565-.41.6.6,0,0,1-.215-.41,3.075,3.075,0,0,1,.1-.819Q71.1-22.542,71.721-22.893ZM75.153-.936A1.385,1.385,0,0,1,75-.312a3.1,3.1,0,0,1-.585.741A6.065,6.065,0,0,1,73.184.312a2.134,2.134,0,0,1-.975-.468,2.315,2.315,0,0,1-.644-1.014,5.551,5.551,0,0,1-.234-1.794,6.56,6.56,0,0,0-.136-1.326,6.56,6.56,0,0,1-.137-1.326A29.262,29.262,0,0,0,70.824-9.4a29.262,29.262,0,0,1-.234-3.783,1.4,1.4,0,0,1,.663-1.248,6.047,6.047,0,0,1,.741-.175q.351-.058.78-.137a1.755,1.755,0,0,1,.819.448q.273.292.507.566-.039.39-.058.78t-.02.819q0,1.482.156,3.159t.351,3.2Q74.724-4.251,74.9-3t.253,1.911ZM82.6.234a2.017,2.017,0,0,1-1.189-.37Q80.886-.507,80.3-.858a5.308,5.308,0,0,1-1.989-1.95,5.816,5.816,0,0,1-.7-2.964A8.774,8.774,0,0,1,77.9-7.82q.292-1.189.527-2.2a5.755,5.755,0,0,1,.546-1.19,8.529,8.529,0,0,1,1.073-1.482,7.6,7.6,0,0,1,1.463-1.268,2.99,2.99,0,0,1,1.677-.546,1.258,1.258,0,0,1,.7.234,6.668,6.668,0,0,0,1.131.585q.585.234,1.19.468t1.189.507a4.881,4.881,0,0,1,1.092.7,2.386,2.386,0,0,1,.663.858q.234.507.468.975a2.255,2.255,0,0,1,.234.8q.039.41.039.839V-7.8a6.072,6.072,0,0,1-.487,2.242,14.236,14.236,0,0,1-1.073,2.009q-.312.507-.819,1.17a10.216,10.216,0,0,1-1.131,1.248,7.719,7.719,0,0,1-1.307.995,2.664,2.664,0,0,1-1.384.41q-.195,0-.41-.019t-.449-.02Zm3.822-9.321a1.78,1.78,0,0,0-.819-1.638,3.343,3.343,0,0,0-1.794-.507,1.722,1.722,0,0,0-1.326.6,5.557,5.557,0,0,0-.936,1.482,8.023,8.023,0,0,0-.565,1.872,10.162,10.162,0,0,0-.175,1.736q0,.156.059.624a5.744,5.744,0,0,0,.215.975,2.9,2.9,0,0,0,.449.9.908.908,0,0,0,.76.39,2.136,2.136,0,0,0,.78-.136q.351-.136.78-.332a3.811,3.811,0,0,0,1.092-1.053,6.367,6.367,0,0,0,.76-1.443,10.849,10.849,0,0,0,.468-1.638,16.268,16.268,0,0,0,.253-1.638ZM97.149-7.644q.78,1.482,1.443,2.984a8.266,8.266,0,0,1,.663,3.374A5.042,5.042,0,0,1,98.924.546a5,5,0,0,1-.916,1.521A4.337,4.337,0,0,1,96.6,3.12a4.03,4.03,0,0,1-1.755.39,2.146,2.146,0,0,1-1.5-.644A2.275,2.275,0,0,1,92.586,1.4a1.774,1.774,0,0,1,.293-.448,1.414,1.414,0,0,1,.6-.254,1.348,1.348,0,0,0,.936.468,1.514,1.514,0,0,0,1.17-.585A2.182,2.182,0,0,0,96.1-.9a1.141,1.141,0,0,0-.039-.39,17.186,17.186,0,0,0-1.092-3.179Q94.3-5.889,93.659-7.137T92.547-9.5a5.734,5.734,0,0,1-.468-2.243,12.454,12.454,0,0,1,.156-1.93,7.121,7.121,0,0,1,.546-1.853,3.951,3.951,0,0,1,1.034-1.4,2.473,2.473,0,0,1,1.658-.546,1.1,1.1,0,0,1,.215.019,1.1,1.1,0,0,0,.215.02.788.788,0,0,1,.663.41,3.678,3.678,0,0,1,.39.722.6.6,0,0,1-.215.487q-.214.176-.41.37a4.176,4.176,0,0,0-.683,1.385,5.649,5.649,0,0,0-.215,1.541v.936a2.387,2.387,0,0,0,.195.78q.195.507.449,1.073t.507,1.053q.253.487.41.722Zm8.034,6.513a2.318,2.318,0,0,1-1.482-.7,1.931,1.931,0,0,1-.7-1.4,1.171,1.171,0,0,1,.39-.877,1.182,1.182,0,0,1,.819-.371l1.482.117a1.273,1.273,0,0,1,1.053.936,3.924,3.924,0,0,1,.156.975,1.215,1.215,0,0,1-.39,1.033,1.646,1.646,0,0,1-1.014.293Zm26.91,6.357a10.153,10.153,0,0,1-3.237-1.345,18.538,18.538,0,0,1-2.925-2.243,17.623,17.623,0,0,1-2.262-2.555A8.644,8.644,0,0,1,122.421-3.2a16.6,16.6,0,0,1-.78-3.764q-.156-1.853-.156-3.139a14.319,14.319,0,0,1,.994-5.616,13,13,0,0,1,2.243-3.7,16.279,16.279,0,0,1,3.549-3.081,5.838,5.838,0,0,1,2.886-.975,3.269,3.269,0,0,1,1.989.663q.273.156.273.858a1.875,1.875,0,0,1-.273.994,1.435,1.435,0,0,1-.975.6,15.889,15.889,0,0,0-1.814.429,6.289,6.289,0,0,0-2.164,1.365,9.585,9.585,0,0,0-1.307,1.443,9.984,9.984,0,0,0-1.151,2.028,13.771,13.771,0,0,0-.819,2.672,16.43,16.43,0,0,0-.312,3.334,13.36,13.36,0,0,0,2.184,6.942q.663.819,1.248,1.463T129.051.39q.429.429.858.838a5.955,5.955,0,0,0,1.326.877,7.012,7.012,0,0,0,.819.332q.507.176.819.293a1.078,1.078,0,0,1,.624.975,1.756,1.756,0,0,1-.41,1.131.844.844,0,0,1-.878.39ZM135.72-5.148q0-2.223-.1-4.6t-.1-4.719q0-1.4.039-2.945t.117-2.983q.078-1.443.253-2.75a15.476,15.476,0,0,1,.449-2.242,4.122,4.122,0,0,1,1.131-.2,1.337,1.337,0,0,1,1.209.6,2.5,2.5,0,0,1,.39,1.384,8.689,8.689,0,0,1-.156,1.736,10.4,10.4,0,0,0-.2,1.618q-.078,1.716-.136,3.178t-.078,2.828q-.02,1.365-.039,2.671t-.02,2.672a18.2,18.2,0,0,1,.975-2.028,12.964,12.964,0,0,1,1.15-1.736,5.576,5.576,0,0,1,1.287-1.209,2.444,2.444,0,0,1,1.345-.449,2.642,2.642,0,0,1,1.736.76,4.958,4.958,0,0,1,1.072,1.618,8.407,8.407,0,0,1,.546,1.911,10.528,10.528,0,0,1,.156,1.6A8.445,8.445,0,0,1,146.971-7q.059.8.137,1.463a16.656,16.656,0,0,0,.546,2.632,11.9,11.9,0,0,1,.468,2.477,1.433,1.433,0,0,1-.507.7,1.178,1.178,0,0,1-.7.312,1.773,1.773,0,0,1-1.56-.936,7.573,7.573,0,0,1-.9-2.165,14.694,14.694,0,0,1-.41-2.477q-.1-1.248-.1-1.833a8.783,8.783,0,0,0-.1-1.17q-.1-.7-.234-1.346a9.168,9.168,0,0,0-.292-1.092q-.156-.449-.312-.448a1.928,1.928,0,0,0-.9.741,7.605,7.605,0,0,0-.8,1.424q-.37.839-.682,1.775t-.527,1.794q-.214.858-.351,1.521t-.176.9v.195a.154.154,0,0,1-.02.1.154.154,0,0,0-.02.1v.156q-.039.429-.1.858a4.813,4.813,0,0,1-.176.8,1.764,1.764,0,0,1-.312.6.591.591,0,0,1-.468.234,2.563,2.563,0,0,1-1.579-.429,2.558,2.558,0,0,1-.839-1.112,4.653,4.653,0,0,1-.312-1.521q-.039-.839-.039-1.7ZM163.683-.7q.117.312.234.644a1.929,1.929,0,0,1,.117.644.729.729,0,0,1-.175.507,1.3,1.3,0,0,1-.429.312,2.505,2.505,0,0,1-.527.175,2.43,2.43,0,0,1-.507.059,1.482,1.482,0,0,1-1.287-.878,8.164,8.164,0,0,1-.819-2.184q-.312-1.306-.527-2.769t-.41-2.633a6.932,6.932,0,0,1-.76,2.067,12.749,12.749,0,0,1-1.618,2.4A11.32,11.32,0,0,1,154.83-.39a4.061,4.061,0,0,1-2.34.819,2.907,2.907,0,0,1-1.54-.371,2.577,2.577,0,0,1-.917-.917,3.722,3.722,0,0,1-.429-1.229,7.533,7.533,0,0,1-.117-1.267,10.234,10.234,0,0,1,.644-3.179,17.993,17.993,0,0,1,1.755-3.686,13.238,13.238,0,0,1,2.574-3.061,4.671,4.671,0,0,1,3.1-1.267,3.208,3.208,0,0,1,.8.117,9.3,9.3,0,0,1,.917.292,5.68,5.68,0,0,1,.9.429,8.168,8.168,0,0,1,.741.487,2.706,2.706,0,0,1,.9,1.482,15.235,15.235,0,0,1,.351,1.95q.273,1.95.429,3.53a24.026,24.026,0,0,0,.585,3.334l.234,1.443Zm-11-2.028a.079.079,0,0,0,.02.058.079.079,0,0,1,.02.059,2.072,2.072,0,0,0,1.17-.683,12.484,12.484,0,0,0,1.326-1.541,18.874,18.874,0,0,0,1.229-1.891,11.092,11.092,0,0,0,.839-1.775q.156-.351.37-.78t.429-.877a8.361,8.361,0,0,0,.351-.839,2.072,2.072,0,0,0,.137-.663q-.2-.078-.351-.156a.774.774,0,0,0-.351-.078,2.092,2.092,0,0,0-1.521.663A7.541,7.541,0,0,0,155.2-9.75a12.038,12.038,0,0,0-.8,1.579,9.388,9.388,0,0,1-.429.956,11.843,11.843,0,0,0-.917,2.106,7,7,0,0,0-.37,2.184ZM187.161-10.3a15.207,15.207,0,0,0,.273,2.944q.273,1.384.468,2.944a5.115,5.115,0,0,0,.449,1.6,3.945,3.945,0,0,1,.37,1.638A1.731,1.731,0,0,1,188.195.2a1.842,1.842,0,0,1-1.268.468A1.4,1.4,0,0,1,185.66-.1,5.865,5.865,0,0,1,185-1.853,15.061,15.061,0,0,1,184.7-3.8a7.415,7.415,0,0,0-.195-1.345,5.475,5.475,0,0,1-.312-1.268q-.078-.643-.136-1.267l-.117-1.248a6.819,6.819,0,0,0-.253-1.287q-.351.663-.76,1.424t-.819,1.56l-.8,1.56q-.39.761-.663,1.384a8.668,8.668,0,0,0-.488,1.268q-.175.6-.331,1.189t-.351,1.17a8.3,8.3,0,0,1-.546,1.248,2.236,2.236,0,0,1-1.014.234,1.355,1.355,0,0,1-1.15-.546,3.9,3.9,0,0,1-.624-1.365,11.8,11.8,0,0,1-.312-1.716q-.1-.9-.214-1.6-.078-.741-.215-1.6t-.351-1.7q-.215-.838-.468-1.58a5.266,5.266,0,0,0-.565-1.209,3.683,3.683,0,0,0-.956,1.209,16.64,16.64,0,0,0-.741,1.619q-.332.839-.566,1.638a12.725,12.725,0,0,1-.429,1.267,5.955,5.955,0,0,0-.682,1.814q-.176.917-.39,1.677a3.019,3.019,0,0,1-.663,1.248,1.966,1.966,0,0,1-1.5.487,1.01,1.01,0,0,1-.6-.214A1.885,1.885,0,0,1,167-.273a3.09,3.09,0,0,1-.312-.663,2.1,2.1,0,0,1-.117-.663,5.329,5.329,0,0,0,.1-.78q.019-.39.019-.819,0-.117.039-.585t.078-.995q.039-.527.078-.995t.039-.585q0-2.184-.039-3.14T166.8-10.8q-.039-.351-.078-.37t-.039-.332a2.461,2.461,0,0,0-.136-.819,2.461,2.461,0,0,1-.137-.819,1.181,1.181,0,0,1,.468-.936,1.553,1.553,0,0,1,1.014-.39,1.575,1.575,0,0,1,1.092.351,2.013,2.013,0,0,1,.565.878,4.474,4.474,0,0,1,.215,1.131q.039.6.039,1.073a9.254,9.254,0,0,1-.059.975,9.559,9.559,0,0,0-.059,1.014,3.355,3.355,0,0,0,.078.624q.234-.507.527-1.131t.624-1.267q.331-.644.682-1.229a8.554,8.554,0,0,1,.7-1.014q.468-.585,1.092-1.229a1.913,1.913,0,0,1,1.4-.643,2.016,2.016,0,0,1,1.326.39,2.413,2.413,0,0,1,.7.975,5.49,5.49,0,0,1,.331,1.307,12.409,12.409,0,0,0,.253,1.345q.351,1.131.644,2.535t.565,2.535q.078-.273.254-.721t.37-.936q.195-.488.39-.9t.312-.644q.351-.741.8-1.619A9.772,9.772,0,0,1,181.8-12.3a6.381,6.381,0,0,1,1.4-1.306,3.707,3.707,0,0,1,1.852-.624,7.435,7.435,0,0,0,.858.371,1.627,1.627,0,0,1,.663.429,2.048,2.048,0,0,1,.429.877,6.89,6.89,0,0,1,.156,1.677Zm4.017,3.822a11.8,11.8,0,0,1,.37-2.905,9.024,9.024,0,0,1,1.111-2.633,6.218,6.218,0,0,1,1.833-1.892,4.492,4.492,0,0,1,2.535-.721,4.652,4.652,0,0,1,1.775.312,3.811,3.811,0,0,1,1.268.819,3.352,3.352,0,0,1,.76,1.151A3.638,3.638,0,0,1,201.084-11a4.68,4.68,0,0,1-.331,1.735,4.687,4.687,0,0,1-.955,1.5,4.74,4.74,0,0,1-1.541,1.073,5.524,5.524,0,0,1-2.087.449,3.307,3.307,0,0,1-.9-.039q-.39-.078-.9-.234a1.735,1.735,0,0,0-.039.332v.214a5.244,5.244,0,0,0,.468,2.262,3.853,3.853,0,0,0,.936,1.229,2.585,2.585,0,0,0,.975.526,3.279,3.279,0,0,0,.624.117,3.482,3.482,0,0,0,2.008-.546l1.774-1.209q.2.078.429.176a1.029,1.029,0,0,1,.429.371,3.514,3.514,0,0,0,.078.37,1.6,1.6,0,0,1,.039.41,1.823,1.823,0,0,1-.292.916,3.4,3.4,0,0,1-.566.644A5.332,5.332,0,0,1,199.348.41a8.438,8.438,0,0,1-2.282.254,5.583,5.583,0,0,1-1.54-.273,9.634,9.634,0,0,1-1.54-.585,7.244,7.244,0,0,1-1.463-1.4,5.94,5.94,0,0,1-.819-1.482,6.843,6.843,0,0,1-.39-1.618Q191.217-5.538,191.178-6.474Zm3.393-2.106a2.907,2.907,0,0,0,.488.059q.331.019.527.019a2.917,2.917,0,0,0,2.048-.663,2.094,2.094,0,0,0,.721-1.6,1.792,1.792,0,0,0-.312-1.014.979.979,0,0,0-.858-.468,3.682,3.682,0,0,0-.76.078.844.844,0,0,0-.566.39,4.746,4.746,0,0,1-.351.39,2.1,2.1,0,0,0-.37.546,5.452,5.452,0,0,0-.331.878A7.383,7.383,0,0,0,194.571-8.58ZM227.136-.7q.117.312.234.644a1.929,1.929,0,0,1,.117.644.729.729,0,0,1-.175.507,1.3,1.3,0,0,1-.429.312,2.5,2.5,0,0,1-.527.175,2.43,2.43,0,0,1-.507.059,1.482,1.482,0,0,1-1.287-.878,8.164,8.164,0,0,1-.819-2.184q-.312-1.306-.527-2.769t-.41-2.633a6.932,6.932,0,0,1-.76,2.067,12.749,12.749,0,0,1-1.618,2.4,11.32,11.32,0,0,1-2.145,1.97,4.061,4.061,0,0,1-2.34.819A2.907,2.907,0,0,1,214.4.058a2.577,2.577,0,0,1-.917-.917,3.722,3.722,0,0,1-.429-1.229,7.533,7.533,0,0,1-.117-1.267,10.234,10.234,0,0,1,.644-3.179,17.993,17.993,0,0,1,1.755-3.686,13.238,13.238,0,0,1,2.574-3.061,4.671,4.671,0,0,1,3.1-1.267,3.209,3.209,0,0,1,.8.117,9.3,9.3,0,0,1,.917.292,5.68,5.68,0,0,1,.9.429,8.168,8.168,0,0,1,.741.487,2.706,2.706,0,0,1,.9,1.482,15.235,15.235,0,0,1,.351,1.95q.273,1.95.429,3.53a24.022,24.022,0,0,0,.585,3.334l.234,1.443Zm-11-2.028a.079.079,0,0,0,.02.058.079.079,0,0,1,.02.059,2.072,2.072,0,0,0,1.17-.683,12.484,12.484,0,0,0,1.326-1.541A18.874,18.874,0,0,0,219.9-6.728,11.092,11.092,0,0,0,220.74-8.5q.156-.351.37-.78t.429-.877A8.354,8.354,0,0,0,221.89-11a2.072,2.072,0,0,0,.137-.663q-.2-.078-.351-.156a.774.774,0,0,0-.351-.078,2.092,2.092,0,0,0-1.521.663,7.541,7.541,0,0,0-1.15,1.482,12.038,12.038,0,0,0-.8,1.579,9.388,9.388,0,0,1-.429.956,11.844,11.844,0,0,0-.917,2.106,7,7,0,0,0-.37,2.184Z" transform="translate(17.479 181.902) rotate(-28.19)" fill="#fff"/>
        <path id="Caminho_168" data-name="Caminho 168" d="M2.34-2.652q.078-1.131.215-2.476a28.874,28.874,0,0,0,.136-2.906v-4.251q0-2.691.058-4.875a29.533,29.533,0,0,1,.371-4.056q.39-2.223,4.017-2.223h.546a4.785,4.785,0,0,1,3.666,2.106,6.3,6.3,0,0,1,1.443,4.056,6.12,6.12,0,0,1-1.365,3.666A10.2,10.2,0,0,1,8.58-10.959a3.021,3.021,0,0,0-.546.37.536.536,0,0,0-.2.41.607.607,0,0,0,.176.448q.175.175.6.526L9.867-8.151,14.2-4.1q1.326,1.248,2.3,2.321A11.352,11.352,0,0,1,18.018.273a.7.7,0,0,1,.117.351q0,.9-1.872,1.365a41.644,41.644,0,0,1-5.148-4.914q-1.755-1.872-3-3.14T6.006-8.073q-.078.507-.175,1.833T5.577-2.769a27.29,27.29,0,0,1-.7,5.148,1.279,1.279,0,0,0-.39.176,1.263,1.263,0,0,1-.624.175.173.173,0,0,1-.078-.019.173.173,0,0,0-.078-.02A2.169,2.169,0,0,1,1.989.312q0-.312.039-.722t.117-.838ZM9.867-18.486a2.875,2.875,0,0,0-.682-1.482,2.26,2.26,0,0,0-1.814-.663q-.936,0-1.17.585-.078.546-.136,1.111a10.8,10.8,0,0,0-.058,1.112q0,.507.117,2.613,0,.429.02.78t.019.663q0,.312-.019.624t-.02.546q3.237-2.379,3.666-4.641.039-.273.058-.507t.02-.429ZM19.89-10.92q0-1.053.078-2.028a8.053,8.053,0,0,1,.39-1.911.524.524,0,0,1,.215-.175,2.421,2.421,0,0,1,.41-.176q.117-.039.253-.078t.332-.078a3.072,3.072,0,0,1,1.248.468,1.255,1.255,0,0,1,.624,1.131,4.782,4.782,0,0,1-.117,1.111,4.977,4.977,0,0,0-.117,1.151,12.078,12.078,0,0,1-.1,1.755,7.6,7.6,0,0,0-.1,1.17q0,1.872.117,3.452t.195,2.4A2.391,2.391,0,0,0,24.707-3.8a17.092,17.092,0,0,0,1.5-2.4,31.055,31.055,0,0,0,1.365-2.964q.624-1.56,1.014-2.769a3.031,3.031,0,0,0,.136-1.014,2.921,2.921,0,0,1,.1-.916,1.217,1.217,0,0,1,.526-.683,2.606,2.606,0,0,1,1.385-.273.173.173,0,0,1,.078.019.173.173,0,0,0,.078.02,1.339,1.339,0,0,1,.741.312,2.354,2.354,0,0,1,.624.624q0,2.3-.137,3.608A22.046,22.046,0,0,0,31.98-8a17.64,17.64,0,0,0,.253,3.218,5.424,5.424,0,0,0,.838,2.164q.234.273.429.526a2.959,2.959,0,0,1,.351.6,1.369,1.369,0,0,1-.253.6,1.047,1.047,0,0,1-.41.312,2.076,2.076,0,0,1-.507.137,4.093,4.093,0,0,0-.546.117,2.861,2.861,0,0,1-1.385-.7,4,4,0,0,1-.858-1.229,6.57,6.57,0,0,1-.488-1.6q-.156-.878-.273-1.813l-.156.312q-.312.663-.839,1.755A16.651,16.651,0,0,1,26.91-1.463,8.573,8.573,0,0,1,25.292.332a3.029,3.029,0,0,1-1.969.76A3.257,3.257,0,0,1,21.509.643,2.84,2.84,0,0,1,20.455-.819a10.325,10.325,0,0,1-.507-2.613q-.136-1.6-.136-3.939a7.712,7.712,0,0,0,.078-1.092V-10.92ZM47.541-7.293a4.589,4.589,0,0,0,.137.741q.136.585.351,1.248t.41,1.287a6.635,6.635,0,0,0,.312.858,3.782,3.782,0,0,1,.351.9,6.586,6.586,0,0,0,.312.936,1.326,1.326,0,0,1-.39,1.092,1.249,1.249,0,0,1-.78.312h-.488a1.636,1.636,0,0,1-.487-.039,6.477,6.477,0,0,1-.741-.351A2.331,2.331,0,0,1,45.786-1.4,3.374,3.374,0,0,1,45.4-2.4q-.2-.721-.37-1.541T44.674-5.48a5.361,5.361,0,0,0-.331-1.034,11.416,11.416,0,0,1-.936,2.867,9.233,9.233,0,0,1-1.443,2.164A6.29,6.29,0,0,1,40.248-.117a3.779,3.779,0,0,1-1.755.468A3.208,3.208,0,0,1,35.646-.956a5.621,5.621,0,0,1-.9-3.256,10.65,10.65,0,0,1,.332-2.5A15.029,15.029,0,0,1,36.017-9.4a14.1,14.1,0,0,1,1.462-2.5,7.984,7.984,0,0,1,1.872-1.872,3.9,3.9,0,0,0,.546-.39,1.848,1.848,0,0,1,1.17-.312,3.756,3.756,0,0,1,1.073.156q.526.156,1.033.312,0-1.365-.117-2.691t-.117-2.574q0-.117-.02-.994t-.02-2.048v-.8q0-.41-.039-.838a1.957,1.957,0,0,0,.039-.682.759.759,0,0,1,.234-.643,1.769,1.769,0,0,1,.8-.566,2.81,2.81,0,0,1,.955-.176,1.281,1.281,0,0,1,1.092.527,1.891,1.891,0,0,1,.39,1.151q0,1.326-.1,2.515t-.1,2.633q0,.9.117,2.125t.234,2.243q.078.819.156,1.794t.2,1.97q.117.995.273,1.931a12.321,12.321,0,0,0,.39,1.677Zm-9.282,4.68a1.915,1.915,0,0,0,1.4-.585,5.721,5.721,0,0,0,1.014-1.4,12.644,12.644,0,0,0,.741-1.716,16.187,16.187,0,0,1,.624-1.56q.156-.585.351-1.17a3.921,3.921,0,0,0,.195-1.248q0-.117-.137-.137t-.331-.039q-.2-.019-.39-.059a.356.356,0,0,1-.273-.234q0-.2.02-.39t.02-.39a1.1,1.1,0,0,1-.215-.02,1.337,1.337,0,0,0-.254-.019A13.952,13.952,0,0,1,39.8-10,5.085,5.085,0,0,0,38.766-8.19l-.41,1.228a8.9,8.9,0,0,0-.273.995q-.1.468-.156.956a9.042,9.042,0,0,0-.059,1.072,1.636,1.636,0,0,0,.156.663A4.08,4.08,0,0,1,38.259-2.613ZM55.536.234a2.017,2.017,0,0,1-1.19-.37q-.527-.371-1.111-.722a5.308,5.308,0,0,1-1.989-1.95,5.816,5.816,0,0,1-.7-2.964,8.774,8.774,0,0,1,.292-2.048q.292-1.189.527-2.2a5.755,5.755,0,0,1,.546-1.19,8.529,8.529,0,0,1,1.073-1.482,7.6,7.6,0,0,1,1.462-1.268,2.99,2.99,0,0,1,1.677-.546,1.258,1.258,0,0,1,.7.234,6.668,6.668,0,0,0,1.131.585q.585.234,1.189.468t1.189.507a4.881,4.881,0,0,1,1.092.7,2.386,2.386,0,0,1,.663.858q.234.507.468.975a2.255,2.255,0,0,1,.234.8q.039.41.039.839V-7.8a6.072,6.072,0,0,1-.487,2.242,14.236,14.236,0,0,1-1.073,2.009q-.312.507-.819,1.17a10.215,10.215,0,0,1-1.131,1.248,7.719,7.719,0,0,1-1.306.995,2.664,2.664,0,0,1-1.384.41q-.2,0-.41-.019T55.77.234Zm3.822-9.321a1.78,1.78,0,0,0-.819-1.638,3.343,3.343,0,0,0-1.794-.507,1.722,1.722,0,0,0-1.326.6,5.557,5.557,0,0,0-.936,1.482,8.023,8.023,0,0,0-.565,1.872,10.161,10.161,0,0,0-.176,1.736q0,.156.059.624a5.744,5.744,0,0,0,.214.975,2.9,2.9,0,0,0,.449.9.908.908,0,0,0,.76.39A2.136,2.136,0,0,0,56-2.789q.351-.136.78-.332a3.811,3.811,0,0,0,1.092-1.053,6.367,6.367,0,0,0,.761-1.443A10.85,10.85,0,0,0,59.1-7.254a16.269,16.269,0,0,0,.254-1.638ZM69.849-.429a.346.346,0,0,0,.039.156.346.346,0,0,1,.039.156A.976.976,0,0,1,69.4.8a2.185,2.185,0,0,1-1.072.292A1.752,1.752,0,0,1,66.768.02a9.392,9.392,0,0,1-.9-2.5,19.506,19.506,0,0,1-.41-2.828q-.1-1.4-.1-2.106,0-1.911-.02-3.412t-.02-3.14a40.222,40.222,0,0,1,.215-4.193,41,41,0,0,0,.215-4.271,1.331,1.331,0,0,1,.234-.819,3.53,3.53,0,0,1,.624-.624q.312,0,.76.039a2.928,2.928,0,0,1,.839.195,1.947,1.947,0,0,1,.663.429,1.055,1.055,0,0,1,.273.78,11.024,11.024,0,0,1-.195,2.047,11.023,11.023,0,0,0-.195,2.048q0,1.482-.02,2.672t-.02,2.359q0,1.014.039,1.931T68.8-9.516q0,.663.02,1.268t.02,1.15a19.621,19.621,0,0,0,.331,3.393Q69.5-1.833,69.849-.429Zm7.059,6.474a14.8,14.8,0,0,0,.136,2.087,12.6,12.6,0,0,1,.137,1.774,4.67,4.67,0,0,1-.1.858,3.757,3.757,0,0,1-.331.975,2.3,2.3,0,0,1-.624.78,1.574,1.574,0,0,1-1.014.312,1.76,1.76,0,0,1-1.151-.488,1.441,1.441,0,0,1-.565-1.111q0-.2.02-.448t.059-.527q-.039-.663-.039-1.326V7.605q0-2.028.039-4.076t.039-4.271q0-1.638-.039-3.3t-.039-3.647q0-1.638-.136-3.179t-.137-3.179a1.615,1.615,0,0,1,.293-1.053,1.724,1.724,0,0,1,1.307-.351,1.722,1.722,0,0,1,1.462.507,4.291,4.291,0,0,1,.6,1.248q.312-.117.761-.273a2.392,2.392,0,0,1,.76-.156h.273a5.533,5.533,0,0,1,1.6.175,5.749,5.749,0,0,1,1.092.488l.117.078a.079.079,0,0,1,.058.019.079.079,0,0,0,.059.02,5.124,5.124,0,0,1,1.384,1.092,7.887,7.887,0,0,1,1.112,1.56,9,9,0,0,1,.741,1.794A6.4,6.4,0,0,1,85.059-7.1a6.525,6.525,0,0,1-.449,2.262,7.025,7.025,0,0,1-1.345,2.223A7.078,7.078,0,0,1,80.983-.936a7.467,7.467,0,0,1-3.257.663h-.351a1.043,1.043,0,0,1-.39-.078A1.028,1.028,0,0,0,76.908.1V6.045ZM80.223-3.978A4.473,4.473,0,0,0,81.51-7.215,4.593,4.593,0,0,0,81.3-8.6a4.6,4.6,0,0,0-.624-1.267,3.861,3.861,0,0,0-.975-.975,3.126,3.126,0,0,0-1.306-.507l-.507.195a2.625,2.625,0,0,0-.565.292,3.215,3.215,0,0,0-.41.292.306.306,0,0,0-.059.078.211.211,0,0,1-.1.078,1.727,1.727,0,0,0-.078.741q0,.741.059,1.736t.059,1.384v1.326a14.214,14.214,0,0,0,.078,1.56q.078.7.39.7a5.479,5.479,0,0,0,1.073-.1,4.539,4.539,0,0,0,1.111-.409Zm7.371-1.17q0-2.223-.1-4.6t-.1-4.719q0-1.4.039-2.945t.117-2.983q.078-1.443.254-2.75a15.474,15.474,0,0,1,.449-2.242,4.121,4.121,0,0,1,1.131-.2,1.337,1.337,0,0,1,1.209.6,2.5,2.5,0,0,1,.39,1.384,8.69,8.69,0,0,1-.156,1.736,10.405,10.405,0,0,0-.195,1.618q-.078,1.716-.137,3.178t-.078,2.828q-.02,1.365-.039,2.671t-.02,2.672a18.2,18.2,0,0,1,.975-2.028,12.965,12.965,0,0,1,1.151-1.736,5.576,5.576,0,0,1,1.287-1.209,2.444,2.444,0,0,1,1.346-.449,2.642,2.642,0,0,1,1.735.76,4.958,4.958,0,0,1,1.073,1.618,8.408,8.408,0,0,1,.546,1.911,10.529,10.529,0,0,1,.156,1.6A8.444,8.444,0,0,1,98.846-7q.058.8.136,1.463a16.656,16.656,0,0,0,.546,2.632A11.906,11.906,0,0,1,100-.429a1.434,1.434,0,0,1-.507.7,1.178,1.178,0,0,1-.7.312,1.773,1.773,0,0,1-1.56-.936,7.573,7.573,0,0,1-.9-2.165,14.692,14.692,0,0,1-.41-2.477q-.1-1.248-.1-1.833a8.784,8.784,0,0,0-.1-1.17q-.1-.7-.234-1.346a9.169,9.169,0,0,0-.293-1.092q-.156-.449-.312-.448a1.928,1.928,0,0,0-.9.741,7.605,7.605,0,0,0-.8,1.424q-.371.839-.682,1.775t-.527,1.794q-.214.858-.351,1.521t-.175.9v.195a.154.154,0,0,1-.02.1.154.154,0,0,0-.02.1v.156q-.039.429-.1.858a4.812,4.812,0,0,1-.175.8,1.764,1.764,0,0,1-.312.6.591.591,0,0,1-.468.234,2.563,2.563,0,0,1-1.579-.429,2.558,2.558,0,0,1-.839-1.112,4.653,4.653,0,0,1-.312-1.521q-.039-.839-.039-1.7ZM125.307-.7q.117.312.234.644a1.928,1.928,0,0,1,.117.644.729.729,0,0,1-.175.507,1.3,1.3,0,0,1-.429.312,2.505,2.505,0,0,1-.527.175,2.43,2.43,0,0,1-.507.059,1.482,1.482,0,0,1-1.287-.878,8.164,8.164,0,0,1-.819-2.184q-.312-1.306-.526-2.769t-.41-2.633a6.932,6.932,0,0,1-.761,2.067,12.748,12.748,0,0,1-1.618,2.4,11.319,11.319,0,0,1-2.145,1.97,4.061,4.061,0,0,1-2.34.819,2.907,2.907,0,0,1-1.541-.371,2.577,2.577,0,0,1-.916-.917,3.722,3.722,0,0,1-.429-1.229,7.533,7.533,0,0,1-.117-1.267,10.234,10.234,0,0,1,.644-3.179,17.993,17.993,0,0,1,1.755-3.686,13.237,13.237,0,0,1,2.574-3.061,4.671,4.671,0,0,1,3.1-1.267,3.209,3.209,0,0,1,.8.117,9.3,9.3,0,0,1,.916.292,5.68,5.68,0,0,1,.9.429,8.168,8.168,0,0,1,.741.487,2.706,2.706,0,0,1,.9,1.482,15.232,15.232,0,0,1,.351,1.95q.273,1.95.429,3.53a24.024,24.024,0,0,0,.585,3.334l.234,1.443Zm-11-2.028a.079.079,0,0,0,.02.058.079.079,0,0,1,.019.059,2.072,2.072,0,0,0,1.17-.683,12.485,12.485,0,0,0,1.326-1.541,18.874,18.874,0,0,0,1.229-1.891,11.093,11.093,0,0,0,.839-1.775q.156-.351.37-.78t.429-.877a8.357,8.357,0,0,0,.351-.839,2.072,2.072,0,0,0,.137-.663q-.195-.078-.351-.156a.774.774,0,0,0-.351-.078,2.092,2.092,0,0,0-1.521.663,7.541,7.541,0,0,0-1.151,1.482,12.039,12.039,0,0,0-.8,1.579,9.39,9.39,0,0,1-.429.956,11.844,11.844,0,0,0-.916,2.106,7,7,0,0,0-.37,2.184Zm22.074-10.647a2.41,2.41,0,0,1,.37-.117,2.411,2.411,0,0,0,.37-.117,6.238,6.238,0,0,0,.76.117,5.42,5.42,0,0,1,.956.195q.078.9.214,1.716a10.941,10.941,0,0,1,.137,1.794q0,2.769.175,5.811t.176,6.942a25.513,25.513,0,0,1-.273,3.725,9.88,9.88,0,0,1-1.209,3.49,4.285,4.285,0,0,0-.585.878,5.208,5.208,0,0,1-.741,1.053,4.629,4.629,0,0,1-1.189.936,4.806,4.806,0,0,1-1.892.526q-.585-.2-.975-.332t-.585-.955a2.9,2.9,0,0,1,.995-1.19,6.944,6.944,0,0,0,1.384-1.384A8.181,8.181,0,0,0,135.7,7.118a17.241,17.241,0,0,0,.527-4.856V.6q0-.8-.039-1.58t-.1-1.6q-.059-.819-.175-1.794a15.7,15.7,0,0,1-.839,1.54,6.142,6.142,0,0,1-1.092,1.307,6.036,6.036,0,0,1-1.521.995,7.069,7.069,0,0,1-2.087.565q-.546-.273-1.111-.624a5.729,5.729,0,0,1-1.033-.819,4.028,4.028,0,0,1-.761-1.053,2.925,2.925,0,0,1-.292-1.326,1.183,1.183,0,0,1,.039-.351q.273-.936.9-2.613a23.327,23.327,0,0,1,1.56-3.334,11.979,11.979,0,0,1,2.223-2.867,4.157,4.157,0,0,1,2.925-1.209,2.564,2.564,0,0,1,.624.078,5.745,5.745,0,0,1,.624.2Zm-5.3,10.452a2.108,2.108,0,0,0,1.189-.7,8.012,8.012,0,0,0,1.17-1.619,18.437,18.437,0,0,0,1.072-2.262q.507-1.267.936-2.671a5.935,5.935,0,0,1,.137-.839,3.608,3.608,0,0,0,.1-.839,2.509,2.509,0,0,0-1.053.273,3.044,3.044,0,0,0-.76.585,5.752,5.752,0,0,0-.6.76q-.273.409-.585.8-.312.663-.721,1.385t-.78,1.462a12,12,0,0,0-.624,1.482,4.445,4.445,0,0,0-.253,1.443Q130.3-3.042,131.079-2.925ZM147.264.234a2.017,2.017,0,0,1-1.189-.37q-.526-.371-1.111-.722a5.308,5.308,0,0,1-1.989-1.95,5.815,5.815,0,0,1-.7-2.964,8.774,8.774,0,0,1,.293-2.048q.292-1.189.526-2.2a5.756,5.756,0,0,1,.546-1.19,8.528,8.528,0,0,1,1.072-1.482,7.6,7.6,0,0,1,1.463-1.268,2.99,2.99,0,0,1,1.677-.546,1.258,1.258,0,0,1,.7.234,6.668,6.668,0,0,0,1.131.585q.585.234,1.189.468t1.189.507a4.881,4.881,0,0,1,1.092.7,2.386,2.386,0,0,1,.663.858q.234.507.468.975a2.255,2.255,0,0,1,.234.8q.039.41.039.839V-7.8a6.072,6.072,0,0,1-.488,2.242A14.236,14.236,0,0,1,153-3.549q-.312.507-.819,1.17a10.215,10.215,0,0,1-1.131,1.248,7.719,7.719,0,0,1-1.307.995,2.664,2.664,0,0,1-1.385.41q-.195,0-.41-.019T147.5.234Zm3.822-9.321a1.78,1.78,0,0,0-.819-1.638,3.343,3.343,0,0,0-1.794-.507,1.722,1.722,0,0,0-1.326.6,5.557,5.557,0,0,0-.936,1.482,8.024,8.024,0,0,0-.566,1.872,10.162,10.162,0,0,0-.175,1.736q0,.156.058.624a5.744,5.744,0,0,0,.215.975,2.9,2.9,0,0,0,.449.9.908.908,0,0,0,.76.39,2.136,2.136,0,0,0,.78-.136q.351-.136.78-.332A3.811,3.811,0,0,0,149.6-4.173a6.366,6.366,0,0,0,.76-1.443,10.847,10.847,0,0,0,.468-1.638,16.268,16.268,0,0,0,.254-1.638Zm6.162,8.541a2.477,2.477,0,0,0,.1-.722q.02-.527.02-1.306,0-.741-.02-1.6t-.039-1.58q-.02-.721-.039-1.248t-.02-.6V-8.892q0-.858-.059-1.716t-.1-1.716v-.156a1.586,1.586,0,0,0-.156-.682,1.673,1.673,0,0,1-.156-.721,1.855,1.855,0,0,1,.429-.78,1.366,1.366,0,0,1,.975-.273,1.912,1.912,0,0,1,1.053.253,1.672,1.672,0,0,1,.585.624,2.433,2.433,0,0,1,.253.839q.059.468.1.9l.117,2.067a4.532,4.532,0,0,0,.819-.917q.429-.6.9-1.307t.975-1.365a6.051,6.051,0,0,1,1.053-1.092,1.737,1.737,0,0,1,.78-.156,2.821,2.821,0,0,1,1.5.351,2.261,2.261,0,0,1,.878,1.131,2.112,2.112,0,0,1-.429.8q-.351.449-.8.936t-.936,1.014a9.448,9.448,0,0,0-.839,1.034,11.047,11.047,0,0,0-1.17,1.521,18.5,18.5,0,0,0-1.053,1.833,18.121,18.121,0,0,0-.78,1.775,4.11,4.11,0,0,0-.312,1.345q0,.312.02.878t.02.877a6.042,6.042,0,0,1-.078.956,2.628,2.628,0,0,1-.312.9,1.907,1.907,0,0,1-.624.663,1.832,1.832,0,0,1-1.014.254A1.608,1.608,0,0,1,157.7.722a1.509,1.509,0,0,1-.449-1.112ZM181.116-.7q.117.312.234.644a1.929,1.929,0,0,1,.117.644.729.729,0,0,1-.175.507,1.3,1.3,0,0,1-.429.312,2.5,2.5,0,0,1-.527.175,2.43,2.43,0,0,1-.507.059,1.482,1.482,0,0,1-1.287-.878,8.164,8.164,0,0,1-.819-2.184q-.312-1.306-.527-2.769t-.41-2.633a6.932,6.932,0,0,1-.76,2.067,12.749,12.749,0,0,1-1.618,2.4,11.32,11.32,0,0,1-2.145,1.97,4.061,4.061,0,0,1-2.34.819,2.907,2.907,0,0,1-1.54-.371,2.577,2.577,0,0,1-.917-.917,3.722,3.722,0,0,1-.429-1.229,7.533,7.533,0,0,1-.117-1.267,10.234,10.234,0,0,1,.644-3.179,17.993,17.993,0,0,1,1.755-3.686,13.238,13.238,0,0,1,2.574-3.061,4.671,4.671,0,0,1,3.1-1.267,3.209,3.209,0,0,1,.8.117,9.3,9.3,0,0,1,.917.292,5.68,5.68,0,0,1,.9.429,8.168,8.168,0,0,1,.741.487,2.706,2.706,0,0,1,.9,1.482,15.235,15.235,0,0,1,.351,1.95q.273,1.95.429,3.53a24.022,24.022,0,0,0,.585,3.334l.234,1.443Zm-11-2.028a.079.079,0,0,0,.02.058.079.079,0,0,1,.02.059,2.072,2.072,0,0,0,1.17-.683,12.484,12.484,0,0,0,1.326-1.541,18.874,18.874,0,0,0,1.229-1.891A11.092,11.092,0,0,0,174.72-8.5q.156-.351.37-.78t.429-.877A8.354,8.354,0,0,0,175.87-11a2.072,2.072,0,0,0,.137-.663q-.2-.078-.351-.156a.774.774,0,0,0-.351-.078,2.092,2.092,0,0,0-1.521.663,7.541,7.541,0,0,0-1.15,1.482,12.038,12.038,0,0,0-.8,1.579,9.388,9.388,0,0,1-.429.956,11.844,11.844,0,0,0-.917,2.106,7,7,0,0,0-.37,2.184Zm17.277,1.6a2.318,2.318,0,0,1-1.482-.7,1.931,1.931,0,0,1-.7-1.4,1.171,1.171,0,0,1,.39-.877,1.182,1.182,0,0,1,.819-.371l1.482.117a1.273,1.273,0,0,1,1.053.936,3.924,3.924,0,0,1,.156.975,1.215,1.215,0,0,1-.39,1.033,1.646,1.646,0,0,1-1.014.293Z" transform="translate(48.344 202.422) rotate(-28.19)" fill="#fff"/>
      </g>
    </g>
  </g>
</svg>
