<svg id="INSTA" xmlns="http://www.w3.org/2000/svg" width="51.333" height="51.333" viewBox="0 0 51.333 51.333">
  <g id="Grupo_14" data-name="Grupo 14">
    <g id="Grupo_13" data-name="Grupo 13">
      <path id="Caminho_18" data-name="Caminho 18" d="M25.666,0A25.666,25.666,0,1,0,51.333,25.666,25.676,25.676,0,0,0,25.666,0Zm16.05,32.34a11.456,11.456,0,0,1-.753,3.936,8.242,8.242,0,0,1-1.848,2.875A7.944,7.944,0,0,1,36.241,41a11.286,11.286,0,0,1-3.936.753c-1.711.068-2.259.1-6.673.1s-4.928-.034-6.673-.1A11.456,11.456,0,0,1,15.023,41a8.242,8.242,0,0,1-2.875-1.848A7.944,7.944,0,0,1,10.3,36.275a11.286,11.286,0,0,1-.753-3.936c-.068-1.711-.1-2.259-.1-6.673s.034-4.928.1-6.673a11.456,11.456,0,0,1,.753-3.936,8.242,8.242,0,0,1,1.848-2.875,7.944,7.944,0,0,1,2.875-1.848,11.286,11.286,0,0,1,3.936-.753c1.711-.068,2.259-.1,6.673-.1s4.928.034,6.673.1a11.456,11.456,0,0,1,3.936.753,8.242,8.242,0,0,1,2.875,1.848,7.944,7.944,0,0,1,1.848,2.875,11.286,11.286,0,0,1,.753,3.936c.068,1.711.1,2.259.1,6.673S41.819,30.594,41.717,32.34ZM25.666,20.294a5.373,5.373,0,1,0,5.373,5.373A5.36,5.36,0,0,0,25.666,20.294ZM38.26,16.119a5.227,5.227,0,0,0-1.2-1.848,4.664,4.664,0,0,0-1.848-1.2,9.524,9.524,0,0,0-3.012-.548c-1.711-.068-2.224-.1-6.536-.1s-4.825,0-6.536.1a9.524,9.524,0,0,0-3.012.548,5.227,5.227,0,0,0-1.848,1.2,4.664,4.664,0,0,0-1.2,1.848,9.524,9.524,0,0,0-.548,3.012c-.068,1.711-.1,2.224-.1,6.536s0,4.825.1,6.536a9.524,9.524,0,0,0,.548,3.012,5.227,5.227,0,0,0,1.2,1.848,4.664,4.664,0,0,0,1.848,1.2,9.524,9.524,0,0,0,3.012.548c1.711.068,2.224.1,6.536.1s4.825,0,6.536-.1a9.524,9.524,0,0,0,3.012-.548,5.227,5.227,0,0,0,1.848-1.2,4.664,4.664,0,0,0,1.2-1.848,9.524,9.524,0,0,0,.548-3.012c.068-1.711.1-2.224.1-6.536s0-4.825-.1-6.536A8.617,8.617,0,0,0,38.26,16.119ZM25.666,33.948a8.282,8.282,0,1,1,8.282-8.282A8.288,8.288,0,0,1,25.666,33.948ZM34.29,18.993a1.951,1.951,0,0,1,0-3.9,1.928,1.928,0,0,1,1.951,1.951A1.972,1.972,0,0,1,34.29,18.993Z" fill="#fff"/>
    </g>
  </g>
</svg>
