<svg id="TWITER" xmlns="http://www.w3.org/2000/svg" width="51.333" height="51.333" viewBox="0 0 51.333 51.333">
  <path id="social-01" d="M25.666,0A25.666,25.666,0,1,0,51.333,25.666,25.676,25.676,0,0,0,25.666,0Zm14.2,20.191c0,.308.034.582.034.89,0,9-6.844,19.4-19.4,19.4a19.422,19.422,0,0,1-10.438-3.046,12.829,12.829,0,0,0,1.643.1,13.732,13.732,0,0,0,8.453-2.909,6.827,6.827,0,0,1-6.365-4.723,7.958,7.958,0,0,0,1.266.137,6.045,6.045,0,0,0,1.78-.24,6.826,6.826,0,0,1-5.476-6.673v-.1a6.807,6.807,0,0,0,3.08.856,6.814,6.814,0,0,1-2.122-9.1A19.351,19.351,0,0,0,26.351,21.9a7.862,7.862,0,0,1-.171-1.54,6.8,6.8,0,0,1,11.772-4.654,14.258,14.258,0,0,0,4.312-1.643,6.613,6.613,0,0,1-3.012,3.764,14.592,14.592,0,0,0,3.9-1.061A14.752,14.752,0,0,1,39.869,20.191Z" fill="#fff" fill-rule="evenodd"/>
</svg>
